<?xml version="1.0" encoding="UTF-8" standalone="no"?>
<!DOCTYPE svg PUBLIC "-//W3C//DTD SVG 1.1//EN"
 "http://www.w3.org/Graphics/SVG/1.1/DTD/svg11.dtd">
<!-- Generated by graphviz version 2.40.1 (20161225.0304)
 -->
<!-- Title: dependencies Pages: 1 -->
<svg width="504pt" height="211pt"
 viewBox="0.00 0.00 504.00 211.00" xmlns="http://www.w3.org/2000/svg" xmlns:xlink="http://www.w3.org/1999/xlink">
<g id="graph0" class="graph" transform="scale(1 1) rotate(0) translate(4 207)">
<title>dependencies</title>
<polygon fill="#ffffff" stroke="transparent" points="-4,4 -4,-207 500,-207 500,4 -4,4"/>
<text text-anchor="start" x="227.0091" y="-42.4" font-family="sans-serif" font-weight="bold" font-size="14.00" fill="#000000">Legend</text>
<polygon fill="#ffffb3" stroke="transparent" points="14,-10 14,-30 34,-30 34,-10 14,-10"/>
<text text-anchor="start" x="37.629" y="-15.4" font-family="sans-serif" font-size="14.00" fill="#000000"> &#160;Declarations</text>
<polygon fill="#8dd3c7" stroke="transparent" points="127,-10 127,-30 147,-30 147,-10 127,-10"/>
<text text-anchor="start" x="150.7251" y="-15.4" font-family="sans-serif" font-size="14.00" fill="#000000"> &#160;Module</text>
<polygon fill="#80b1d3" stroke="transparent" points="213,-10 213,-30 233,-30 233,-10 213,-10"/>
<text text-anchor="start" x="236.7812" y="-15.4" font-family="sans-serif" font-size="14.00" fill="#000000"> &#160;Bootstrap</text>
<polygon fill="#fdb462" stroke="transparent" points="310,-10 310,-30 330,-30 330,-10 310,-10"/>
<text text-anchor="start" x="333.6732" y="-15.4" font-family="sans-serif" font-size="14.00" fill="#000000"> &#160;Providers</text>
<polygon fill="#fb8072" stroke="transparent" points="406,-10 406,-30 426,-30 426,-10 406,-10"/>
<text text-anchor="start" x="429.7258" y="-15.4" font-family="sans-serif" font-size="14.00" fill="#000000"> &#160;Exports</text>
<g id="clust1" class="cluster">
<title>cluster_CompareModule</title>
<polygon fill="none" stroke="#000000" stroke-dasharray="1,5" points="84,-70 84,-195 412,-195 412,-70 84,-70"/>
</g>
<g id="clust2" class="cluster">
<title>cluster_CompareModule_declarations</title>
<polygon fill="none" stroke="#000000" points="216,-78 216,-130 404,-130 404,-78 216,-78"/>
</g>
<g id="clust4" class="cluster">
<title>cluster_CompareModule_imports</title>
<polygon fill="none" stroke="#000000" points="92,-78 92,-130 208,-130 208,-78 92,-78"/>
</g>
<!-- CompareLayoutComponent -->
<g id="node1" class="node">
<title>CompareLayoutComponent</title>
<polygon fill="#ffffb3" stroke="#000000" points="396.3075,-122 223.6925,-122 223.6925,-86 396.3075,-86 396.3075,-122"/>
<text text-anchor="middle" x="310" y="-99.8" font-family="Times,serif" font-size="14.00" fill="#000000">CompareLayoutComponent</text>
</g>
<!-- CompareModule -->
<g id="node2" class="node">
<title>CompareModule</title>
<polygon fill="#8dd3c7" stroke="#000000" points="285.3669,-187 282.3669,-191 261.3669,-191 258.3669,-187 174.6331,-187 174.6331,-151 285.3669,-151 285.3669,-187"/>
<text text-anchor="middle" x="230" y="-164.8" font-family="Times,serif" font-size="14.00" fill="#000000">CompareModule</text>
</g>
<!-- CompareLayoutComponent&#45;&gt;CompareModule -->
<g id="edge1" class="edge">
<title>CompareLayoutComponent&#45;&gt;CompareModule</title>
<path fill="none" stroke="#000000" d="M254.6399,-122.1061C254.6399,-122.1061 254.6399,-140.991 254.6399,-140.991"/>
<polygon fill="#000000" stroke="#000000" points="251.14,-140.9909 254.6399,-150.991 258.14,-140.991 251.14,-140.9909"/>
</g>
<!-- PricingModule -->
<g id="node3" class="node">
<title>PricingModule</title>
<polygon fill="#8dd3c7" stroke="#000000" points="199.9888,-122 196.9888,-126 175.9888,-126 172.9888,-122 100.0112,-122 100.0112,-86 199.9888,-86 199.9888,-122"/>
<text text-anchor="middle" x="150" y="-99.8" font-family="Times,serif" font-size="14.00" fill="#000000">PricingModule</text>
</g>
<!-- PricingModule&#45;&gt;CompareModule -->
<g id="edge2" class="edge">
<title>PricingModule&#45;&gt;CompareModule</title>
<path fill="none" stroke="#000000" d="M187.2805,-122.1061C187.2805,-122.1061 187.2805,-140.991 187.2805,-140.991"/>
<polygon fill="#000000" stroke="#000000" points="183.7806,-140.9909 187.2805,-150.991 190.7806,-140.991 183.7806,-140.9909"/>
</g>
</g>
</svg>
