<?xml version="1.0" encoding="UTF-8" standalone="no"?>
<!DOCTYPE svg PUBLIC "-//W3C//DTD SVG 1.1//EN"
 "http://www.w3.org/Graphics/SVG/1.1/DTD/svg11.dtd">
<!-- Generated by graphviz version 2.40.1 (20161225.0304)
 -->
<!-- Title: dependencies Pages: 1 -->
<svg width="602pt" height="284pt"
 viewBox="0.00 0.00 602.00 284.00" xmlns="http://www.w3.org/2000/svg" xmlns:xlink="http://www.w3.org/1999/xlink">
<g id="graph0" class="graph" transform="scale(1 1) rotate(0) translate(4 280)">
<title>dependencies</title>
<polygon fill="#ffffff" stroke="transparent" points="-4,4 -4,-280 598,-280 598,4 -4,4"/>
<text text-anchor="start" x="276.0091" y="-42.4" font-family="sans-serif" font-weight="bold" font-size="14.00" fill="#000000">Legend</text>
<polygon fill="#ffffb3" stroke="transparent" points="63,-10 63,-30 83,-30 83,-10 63,-10"/>
<text text-anchor="start" x="86.629" y="-15.4" font-family="sans-serif" font-size="14.00" fill="#000000"> &#160;Declarations</text>
<polygon fill="#8dd3c7" stroke="transparent" points="176,-10 176,-30 196,-30 196,-10 176,-10"/>
<text text-anchor="start" x="199.7251" y="-15.4" font-family="sans-serif" font-size="14.00" fill="#000000"> &#160;Module</text>
<polygon fill="#80b1d3" stroke="transparent" points="262,-10 262,-30 282,-30 282,-10 262,-10"/>
<text text-anchor="start" x="285.7812" y="-15.4" font-family="sans-serif" font-size="14.00" fill="#000000"> &#160;Bootstrap</text>
<polygon fill="#fdb462" stroke="transparent" points="359,-10 359,-30 379,-30 379,-10 359,-10"/>
<text text-anchor="start" x="382.6732" y="-15.4" font-family="sans-serif" font-size="14.00" fill="#000000"> &#160;Providers</text>
<polygon fill="#fb8072" stroke="transparent" points="455,-10 455,-30 475,-30 475,-10 455,-10"/>
<text text-anchor="start" x="478.7258" y="-15.4" font-family="sans-serif" font-size="14.00" fill="#000000"> &#160;Exports</text>
<g id="clust1" class="cluster">
<title>cluster_PaymentModule</title>
<polygon fill="none" stroke="#000000" stroke-dasharray="1,5" points="8,-70 8,-268 586,-268 586,-70 8,-70"/>
</g>
<g id="clust2" class="cluster">
<title>cluster_PaymentModule_declarations</title>
<polygon fill="none" stroke="#000000" points="194,-78 194,-130 578,-130 578,-78 194,-78"/>
</g>
<g id="clust5" class="cluster">
<title>cluster_PaymentModule_imports</title>
<polygon fill="none" stroke="#000000" points="16,-78 16,-130 186,-130 186,-78 16,-78"/>
</g>
<g id="clust6" class="cluster">
<title>cluster_PaymentModule_exports</title>
<polygon fill="none" stroke="#000000" points="197,-208 197,-260 387,-260 387,-208 197,-208"/>
</g>
<!-- PaymentDetailsComponent -->
<g id="node1" class="node">
<title>PaymentDetailsComponent</title>
<polygon fill="#ffffb3" stroke="#000000" points="569.9776,-122 400.0224,-122 400.0224,-86 569.9776,-86 569.9776,-122"/>
<text text-anchor="middle" x="485" y="-99.8" font-family="Times,serif" font-size="14.00" fill="#000000">PaymentDetailsComponent</text>
</g>
<!-- PaymentModule -->
<g id="node3" class="node">
<title>PaymentModule</title>
<polygon fill="#8dd3c7" stroke="#000000" points="346.0438,-187 343.0438,-191 322.0438,-191 319.0438,-187 237.9562,-187 237.9562,-151 346.0438,-151 346.0438,-187"/>
<text text-anchor="middle" x="292" y="-164.8" font-family="Times,serif" font-size="14.00" fill="#000000">PaymentModule</text>
</g>
<!-- PaymentDetailsComponent&#45;&gt;PaymentModule -->
<g id="edge1" class="edge">
<title>PaymentDetailsComponent&#45;&gt;PaymentModule</title>
<path fill="none" stroke="#000000" d="M485,-122.1061C485,-141.3391 485,-169 485,-169 485,-169 356.2749,-169 356.2749,-169"/>
<polygon fill="#000000" stroke="#000000" points="356.2749,-165.5001 346.2749,-169 356.2748,-172.5001 356.2749,-165.5001"/>
</g>
<!-- PaymentMessageComponent -->
<g id="node2" class="node">
<title>PaymentMessageComponent</title>
<polygon fill="#ffffb3" stroke="#000000" points="381.8033,-122 202.1967,-122 202.1967,-86 381.8033,-86 381.8033,-122"/>
<text text-anchor="middle" x="292" y="-99.8" font-family="Times,serif" font-size="14.00" fill="#000000">PaymentMessageComponent</text>
</g>
<!-- PaymentMessageComponent&#45;&gt;PaymentModule -->
<g id="edge2" class="edge">
<title>PaymentMessageComponent&#45;&gt;PaymentModule</title>
<path fill="none" stroke="#000000" d="M292,-122.1061C292,-122.1061 292,-140.991 292,-140.991"/>
<polygon fill="#000000" stroke="#000000" points="288.5001,-140.9909 292,-150.991 295.5001,-140.991 288.5001,-140.9909"/>
</g>
<!-- PaymentDetailsComponent  -->
<g id="node5" class="node">
<title>PaymentDetailsComponent </title>
<polygon fill="#fb8072" stroke="#000000" points="378.9783,-252 205.0217,-252 205.0217,-216 378.9783,-216 378.9783,-252"/>
<text text-anchor="middle" x="292" y="-229.8" font-family="Times,serif" font-size="14.00" fill="#000000">PaymentDetailsComponent </text>
</g>
<!-- PaymentModule&#45;&gt;PaymentDetailsComponent  -->
<g id="edge4" class="edge">
<title>PaymentModule&#45;&gt;PaymentDetailsComponent </title>
<path fill="none" stroke="#000000" stroke-dasharray="5,2" d="M292,-187.1061C292,-187.1061 292,-205.991 292,-205.991"/>
<polygon fill="#000000" stroke="#000000" points="288.5001,-205.9909 292,-215.991 295.5001,-205.991 288.5001,-205.9909"/>
</g>
<!-- PaymentRoutingModule -->
<g id="node4" class="node">
<title>PaymentRoutingModule</title>
<polygon fill="#8dd3c7" stroke="#000000" points="177.661,-122 174.661,-126 153.661,-126 150.661,-122 24.339,-122 24.339,-86 177.661,-86 177.661,-122"/>
<text text-anchor="middle" x="101" y="-99.8" font-family="Times,serif" font-size="14.00" fill="#000000">PaymentRoutingModule</text>
</g>
<!-- PaymentRoutingModule&#45;&gt;PaymentModule -->
<g id="edge3" class="edge">
<title>PaymentRoutingModule&#45;&gt;PaymentModule</title>
<path fill="none" stroke="#000000" d="M101,-122.1061C101,-141.3391 101,-169 101,-169 101,-169 227.778,-169 227.778,-169"/>
<polygon fill="#000000" stroke="#000000" points="227.778,-172.5001 237.778,-169 227.7779,-165.5001 227.778,-172.5001"/>
</g>
</g>
</svg>
