<?xml version="1.0" encoding="UTF-8" standalone="no"?>
<!DOCTYPE svg PUBLIC "-//W3C//DTD SVG 1.1//EN"
 "http://www.w3.org/Graphics/SVG/1.1/DTD/svg11.dtd">
<!-- Generated by graphviz version 2.40.1 (20161225.0304)
 -->
<!-- Title: dependencies Pages: 1 -->
<svg width="1014pt" height="211pt"
 viewBox="0.00 0.00 1014.00 211.00" xmlns="http://www.w3.org/2000/svg" xmlns:xlink="http://www.w3.org/1999/xlink">
<g id="graph0" class="graph" transform="scale(1 1) rotate(0) translate(4 207)">
<title>dependencies</title>
<polygon fill="#ffffff" stroke="transparent" points="-4,4 -4,-207 1010,-207 1010,4 -4,4"/>
<text text-anchor="start" x="482.0091" y="-42.4" font-family="sans-serif" font-weight="bold" font-size="14.00" fill="#000000">Legend</text>
<polygon fill="#ffffb3" stroke="transparent" points="269,-10 269,-30 289,-30 289,-10 269,-10"/>
<text text-anchor="start" x="292.629" y="-15.4" font-family="sans-serif" font-size="14.00" fill="#000000"> &#160;Declarations</text>
<polygon fill="#8dd3c7" stroke="transparent" points="382,-10 382,-30 402,-30 402,-10 382,-10"/>
<text text-anchor="start" x="405.7251" y="-15.4" font-family="sans-serif" font-size="14.00" fill="#000000"> &#160;Module</text>
<polygon fill="#80b1d3" stroke="transparent" points="468,-10 468,-30 488,-30 488,-10 468,-10"/>
<text text-anchor="start" x="491.7812" y="-15.4" font-family="sans-serif" font-size="14.00" fill="#000000"> &#160;Bootstrap</text>
<polygon fill="#fdb462" stroke="transparent" points="565,-10 565,-30 585,-30 585,-10 565,-10"/>
<text text-anchor="start" x="588.6732" y="-15.4" font-family="sans-serif" font-size="14.00" fill="#000000"> &#160;Providers</text>
<polygon fill="#fb8072" stroke="transparent" points="661,-10 661,-30 681,-30 681,-10 661,-10"/>
<text text-anchor="start" x="684.7258" y="-15.4" font-family="sans-serif" font-size="14.00" fill="#000000"> &#160;Exports</text>
<g id="clust1" class="cluster">
<title>cluster_OrdersModule</title>
<polygon fill="none" stroke="#000000" stroke-dasharray="1,5" points="8,-70 8,-195 998,-195 998,-70 8,-70"/>
</g>
<g id="clust2" class="cluster">
<title>cluster_OrdersModule_declarations</title>
<polygon fill="none" stroke="#000000" points="672,-78 672,-130 990,-130 990,-78 672,-78"/>
</g>
<g id="clust5" class="cluster">
<title>cluster_OrdersModule_imports</title>
<polygon fill="none" stroke="#000000" points="16,-78 16,-130 664,-130 664,-78 16,-78"/>
</g>
<!-- OrderDetailComponent -->
<g id="node1" class="node">
<title>OrderDetailComponent</title>
<polygon fill="#ffffb3" stroke="#000000" points="982.1825,-122 833.8175,-122 833.8175,-86 982.1825,-86 982.1825,-122"/>
<text text-anchor="middle" x="908" y="-99.8" font-family="Times,serif" font-size="14.00" fill="#000000">OrderDetailComponent</text>
</g>
<!-- OrdersModule -->
<g id="node3" class="node">
<title>OrdersModule</title>
<polygon fill="#8dd3c7" stroke="#000000" points="498.6375,-187 495.6375,-191 474.6375,-191 471.6375,-187 401.3625,-187 401.3625,-151 498.6375,-151 498.6375,-187"/>
<text text-anchor="middle" x="450" y="-164.8" font-family="Times,serif" font-size="14.00" fill="#000000">OrdersModule</text>
</g>
<!-- OrderDetailComponent&#45;&gt;OrdersModule -->
<g id="edge1" class="edge">
<title>OrderDetailComponent&#45;&gt;OrdersModule</title>
<path fill="none" stroke="#000000" d="M908,-122.2921C908,-144.2057 908,-178 908,-178 908,-178 509.014,-178 509.014,-178"/>
<polygon fill="#000000" stroke="#000000" points="509.0141,-174.5001 499.014,-178 509.014,-181.5001 509.0141,-174.5001"/>
</g>
<!-- OrderListComponent -->
<g id="node2" class="node">
<title>OrderListComponent</title>
<polygon fill="#ffffb3" stroke="#000000" points="815.7534,-122 680.2466,-122 680.2466,-86 815.7534,-86 815.7534,-122"/>
<text text-anchor="middle" x="748" y="-99.8" font-family="Times,serif" font-size="14.00" fill="#000000">OrderListComponent</text>
</g>
<!-- OrderListComponent&#45;&gt;OrdersModule -->
<g id="edge2" class="edge">
<title>OrderListComponent&#45;&gt;OrdersModule</title>
<path fill="none" stroke="#000000" d="M748,-122.1061C748,-141.3391 748,-169 748,-169 748,-169 508.8749,-169 508.8749,-169"/>
<polygon fill="#000000" stroke="#000000" points="508.875,-165.5001 498.8749,-169 508.8749,-172.5001 508.875,-165.5001"/>
</g>
<!-- DataFilterModule -->
<g id="node4" class="node">
<title>DataFilterModule</title>
<polygon fill="#8dd3c7" stroke="#000000" points="656.3062,-122 653.3062,-126 632.3062,-126 629.3062,-122 539.6938,-122 539.6938,-86 656.3062,-86 656.3062,-122"/>
<text text-anchor="middle" x="598" y="-99.8" font-family="Times,serif" font-size="14.00" fill="#000000">DataFilterModule</text>
</g>
<!-- DataFilterModule&#45;&gt;OrdersModule -->
<g id="edge3" class="edge">
<title>DataFilterModule&#45;&gt;OrdersModule</title>
<path fill="none" stroke="#000000" d="M598,-122.027C598,-138.3976 598,-160 598,-160 598,-160 508.8709,-160 508.8709,-160"/>
<polygon fill="#000000" stroke="#000000" points="508.8709,-156.5001 498.8709,-160 508.8709,-163.5001 508.8709,-156.5001"/>
</g>
<!-- OrdersRoutingModule -->
<g id="node5" class="node">
<title>OrdersRoutingModule</title>
<polygon fill="#8dd3c7" stroke="#000000" points="521.2548,-122 518.2548,-126 497.2548,-126 494.2548,-122 378.7452,-122 378.7452,-86 521.2548,-86 521.2548,-122"/>
<text text-anchor="middle" x="450" y="-99.8" font-family="Times,serif" font-size="14.00" fill="#000000">OrdersRoutingModule</text>
</g>
<!-- OrdersRoutingModule&#45;&gt;OrdersModule -->
<g id="edge4" class="edge">
<title>OrdersRoutingModule&#45;&gt;OrdersModule</title>
<path fill="none" stroke="#000000" d="M450,-122.1061C450,-122.1061 450,-140.991 450,-140.991"/>
<polygon fill="#000000" stroke="#000000" points="446.5001,-140.9909 450,-150.991 453.5001,-140.991 446.5001,-140.9909"/>
</g>
<!-- PaymentModule -->
<g id="node6" class="node">
<title>PaymentModule</title>
<polygon fill="#8dd3c7" stroke="#000000" points="360.0438,-122 357.0438,-126 336.0438,-126 333.0438,-122 251.9562,-122 251.9562,-86 360.0438,-86 360.0438,-122"/>
<text text-anchor="middle" x="306" y="-99.8" font-family="Times,serif" font-size="14.00" fill="#000000">PaymentModule</text>
</g>
<!-- PaymentModule&#45;&gt;OrdersModule -->
<g id="edge5" class="edge">
<title>PaymentModule&#45;&gt;OrdersModule</title>
<path fill="none" stroke="#000000" d="M306,-122.027C306,-138.3976 306,-160 306,-160 306,-160 391.2482,-160 391.2482,-160"/>
<polygon fill="#000000" stroke="#000000" points="391.2482,-163.5001 401.2482,-160 391.2481,-156.5001 391.2482,-163.5001"/>
</g>
<!-- PricingModule -->
<g id="node7" class="node">
<title>PricingModule</title>
<polygon fill="#8dd3c7" stroke="#000000" points="233.9888,-122 230.9888,-126 209.9888,-126 206.9888,-122 134.0112,-122 134.0112,-86 233.9888,-86 233.9888,-122"/>
<text text-anchor="middle" x="184" y="-99.8" font-family="Times,serif" font-size="14.00" fill="#000000">PricingModule</text>
</g>
<!-- PricingModule&#45;&gt;OrdersModule -->
<g id="edge6" class="edge">
<title>PricingModule&#45;&gt;OrdersModule</title>
<path fill="none" stroke="#000000" d="M184,-122.1061C184,-141.3391 184,-169 184,-169 184,-169 391.2115,-169 391.2115,-169"/>
<polygon fill="#000000" stroke="#000000" points="391.2115,-172.5001 401.2115,-169 391.2115,-165.5001 391.2115,-172.5001"/>
</g>
<!-- TableModule -->
<g id="node8" class="node">
<title>TableModule</title>
<polygon fill="#8dd3c7" stroke="#000000" points="115.9232,-122 112.9232,-126 91.9232,-126 88.9232,-122 24.0768,-122 24.0768,-86 115.9232,-86 115.9232,-122"/>
<text text-anchor="middle" x="70" y="-99.8" font-family="Times,serif" font-size="14.00" fill="#000000">TableModule</text>
</g>
<!-- TableModule&#45;&gt;OrdersModule -->
<g id="edge7" class="edge">
<title>TableModule&#45;&gt;OrdersModule</title>
<path fill="none" stroke="#000000" d="M70,-122.2921C70,-144.2057 70,-178 70,-178 70,-178 391.0996,-178 391.0996,-178"/>
<polygon fill="#000000" stroke="#000000" points="391.0996,-181.5001 401.0996,-178 391.0995,-174.5001 391.0996,-181.5001"/>
</g>
</g>
</svg>
