<?xml version="1.0" encoding="UTF-8" standalone="no"?>
<!DOCTYPE svg PUBLIC "-//W3C//DTD SVG 1.1//EN"
 "http://www.w3.org/Graphics/SVG/1.1/DTD/svg11.dtd">
<!-- Generated by graphviz version 2.40.1 (20161225.0304)
 -->
<!-- Title: dependencies Pages: 1 -->
<svg width="527pt" height="211pt"
 viewBox="0.00 0.00 527.00 211.00" xmlns="http://www.w3.org/2000/svg" xmlns:xlink="http://www.w3.org/1999/xlink">
<g id="graph0" class="graph" transform="scale(1 1) rotate(0) translate(4 207)">
<title>dependencies</title>
<polygon fill="#ffffff" stroke="transparent" points="-4,4 -4,-207 523,-207 523,4 -4,4"/>
<text text-anchor="start" x="238.5091" y="-42.4" font-family="sans-serif" font-weight="bold" font-size="14.00" fill="#000000">Legend</text>
<polygon fill="#ffffb3" stroke="transparent" points="25.5,-10 25.5,-30 45.5,-30 45.5,-10 25.5,-10"/>
<text text-anchor="start" x="49.129" y="-15.4" font-family="sans-serif" font-size="14.00" fill="#000000"> &#160;Declarations</text>
<polygon fill="#8dd3c7" stroke="transparent" points="138.5,-10 138.5,-30 158.5,-30 158.5,-10 138.5,-10"/>
<text text-anchor="start" x="162.2251" y="-15.4" font-family="sans-serif" font-size="14.00" fill="#000000"> &#160;Module</text>
<polygon fill="#80b1d3" stroke="transparent" points="224.5,-10 224.5,-30 244.5,-30 244.5,-10 224.5,-10"/>
<text text-anchor="start" x="248.2812" y="-15.4" font-family="sans-serif" font-size="14.00" fill="#000000"> &#160;Bootstrap</text>
<polygon fill="#fdb462" stroke="transparent" points="321.5,-10 321.5,-30 341.5,-30 341.5,-10 321.5,-10"/>
<text text-anchor="start" x="345.1732" y="-15.4" font-family="sans-serif" font-size="14.00" fill="#000000"> &#160;Providers</text>
<polygon fill="#fb8072" stroke="transparent" points="417.5,-10 417.5,-30 437.5,-30 437.5,-10 417.5,-10"/>
<text text-anchor="start" x="441.2258" y="-15.4" font-family="sans-serif" font-size="14.00" fill="#000000"> &#160;Exports</text>
<g id="clust1" class="cluster">
<title>cluster_DashboardModule</title>
<polygon fill="none" stroke="#000000" stroke-dasharray="1,5" points="8,-70 8,-195 511,-195 511,-70 8,-70"/>
</g>
<g id="clust2" class="cluster">
<title>cluster_DashboardModule_declarations</title>
<polygon fill="none" stroke="#000000" points="315,-78 315,-130 503,-130 503,-78 315,-78"/>
</g>
<g id="clust4" class="cluster">
<title>cluster_DashboardModule_imports</title>
<polygon fill="none" stroke="#000000" points="16,-78 16,-130 307,-130 307,-78 16,-78"/>
</g>
<!-- DashboardViewComponent -->
<g id="node1" class="node">
<title>DashboardViewComponent</title>
<polygon fill="#ffffb3" stroke="#000000" points="495.292,-122 322.708,-122 322.708,-86 495.292,-86 495.292,-122"/>
<text text-anchor="middle" x="409" y="-99.8" font-family="Times,serif" font-size="14.00" fill="#000000">DashboardViewComponent</text>
</g>
<!-- DashboardModule -->
<g id="node2" class="node">
<title>DashboardModule</title>
<polygon fill="#8dd3c7" stroke="#000000" points="276.191,-187 273.191,-191 252.191,-191 249.191,-187 155.809,-187 155.809,-151 276.191,-151 276.191,-187"/>
<text text-anchor="middle" x="216" y="-164.8" font-family="Times,serif" font-size="14.00" fill="#000000">DashboardModule</text>
</g>
<!-- DashboardViewComponent&#45;&gt;DashboardModule -->
<g id="edge1" class="edge">
<title>DashboardViewComponent&#45;&gt;DashboardModule</title>
<path fill="none" stroke="#000000" d="M409,-122.1061C409,-141.3391 409,-169 409,-169 409,-169 286.2725,-169 286.2725,-169"/>
<polygon fill="#000000" stroke="#000000" points="286.2726,-165.5001 276.2725,-169 286.2725,-172.5001 286.2726,-165.5001"/>
</g>
<!-- DashboardRoutingModule -->
<g id="node3" class="node">
<title>DashboardRoutingModule</title>
<polygon fill="#8dd3c7" stroke="#000000" points="298.8089,-122 295.8089,-126 274.8089,-126 271.8089,-122 133.1911,-122 133.1911,-86 298.8089,-86 298.8089,-122"/>
<text text-anchor="middle" x="216" y="-99.8" font-family="Times,serif" font-size="14.00" fill="#000000">DashboardRoutingModule</text>
</g>
<!-- DashboardRoutingModule&#45;&gt;DashboardModule -->
<g id="edge2" class="edge">
<title>DashboardRoutingModule&#45;&gt;DashboardModule</title>
<path fill="none" stroke="#000000" d="M216,-122.1061C216,-122.1061 216,-140.991 216,-140.991"/>
<polygon fill="#000000" stroke="#000000" points="212.5001,-140.9909 216,-150.991 219.5001,-140.991 212.5001,-140.9909"/>
</g>
<!-- TableModule -->
<g id="node4" class="node">
<title>TableModule</title>
<polygon fill="#8dd3c7" stroke="#000000" points="115.9232,-122 112.9232,-126 91.9232,-126 88.9232,-122 24.0768,-122 24.0768,-86 115.9232,-86 115.9232,-122"/>
<text text-anchor="middle" x="70" y="-99.8" font-family="Times,serif" font-size="14.00" fill="#000000">TableModule</text>
</g>
<!-- TableModule&#45;&gt;DashboardModule -->
<g id="edge3" class="edge">
<title>TableModule&#45;&gt;DashboardModule</title>
<path fill="none" stroke="#000000" d="M70,-122.1061C70,-141.3391 70,-169 70,-169 70,-169 145.7733,-169 145.7733,-169"/>
<polygon fill="#000000" stroke="#000000" points="145.7733,-172.5001 155.7733,-169 145.7733,-165.5001 145.7733,-172.5001"/>
</g>
</g>
</svg>
