<?xml version="1.0" encoding="UTF-8" standalone="no"?>
<!DOCTYPE svg PUBLIC "-//W3C//DTD SVG 1.1//EN"
 "http://www.w3.org/Graphics/SVG/1.1/DTD/svg11.dtd">
<!-- Generated by graphviz version 2.40.1 (20161225.0304)
 -->
<!-- Title: dependencies Pages: 1 -->
<svg width="714pt" height="211pt"
 viewBox="0.00 0.00 714.00 211.00" xmlns="http://www.w3.org/2000/svg" xmlns:xlink="http://www.w3.org/1999/xlink">
<g id="graph0" class="graph" transform="scale(1 1) rotate(0) translate(4 207)">
<title>dependencies</title>
<polygon fill="#ffffff" stroke="transparent" points="-4,4 -4,-207 710,-207 710,4 -4,4"/>
<text text-anchor="start" x="332.0091" y="-42.4" font-family="sans-serif" font-weight="bold" font-size="14.00" fill="#000000">Legend</text>
<polygon fill="#ffffb3" stroke="transparent" points="119,-10 119,-30 139,-30 139,-10 119,-10"/>
<text text-anchor="start" x="142.629" y="-15.4" font-family="sans-serif" font-size="14.00" fill="#000000"> &#160;Declarations</text>
<polygon fill="#8dd3c7" stroke="transparent" points="232,-10 232,-30 252,-30 252,-10 232,-10"/>
<text text-anchor="start" x="255.7251" y="-15.4" font-family="sans-serif" font-size="14.00" fill="#000000"> &#160;Module</text>
<polygon fill="#80b1d3" stroke="transparent" points="318,-10 318,-30 338,-30 338,-10 318,-10"/>
<text text-anchor="start" x="341.7812" y="-15.4" font-family="sans-serif" font-size="14.00" fill="#000000"> &#160;Bootstrap</text>
<polygon fill="#fdb462" stroke="transparent" points="415,-10 415,-30 435,-30 435,-10 415,-10"/>
<text text-anchor="start" x="438.6732" y="-15.4" font-family="sans-serif" font-size="14.00" fill="#000000"> &#160;Providers</text>
<polygon fill="#fb8072" stroke="transparent" points="511,-10 511,-30 531,-30 531,-10 511,-10"/>
<text text-anchor="start" x="534.7258" y="-15.4" font-family="sans-serif" font-size="14.00" fill="#000000"> &#160;Exports</text>
<g id="clust1" class="cluster">
<title>cluster_QuoteModule</title>
<polygon fill="none" stroke="#000000" stroke-dasharray="1,5" points="8,-70 8,-195 698,-195 698,-70 8,-70"/>
</g>
<g id="clust2" class="cluster">
<title>cluster_QuoteModule_declarations</title>
<polygon fill="none" stroke="#000000" points="140,-78 140,-130 690,-130 690,-78 140,-78"/>
</g>
<g id="clust6" class="cluster">
<title>cluster_QuoteModule_imports</title>
<polygon fill="none" stroke="#000000" points="16,-78 16,-130 132,-130 132,-78 16,-78"/>
</g>
<!-- CreateQuoteComponent -->
<g id="node1" class="node">
<title>CreateQuoteComponent</title>
<polygon fill="#ffffb3" stroke="#000000" points="682.0758,-122 529.9242,-122 529.9242,-86 682.0758,-86 682.0758,-122"/>
<text text-anchor="middle" x="606" y="-99.8" font-family="Times,serif" font-size="14.00" fill="#000000">CreateQuoteComponent</text>
</g>
<!-- QuoteModule -->
<g id="node4" class="node">
<title>QuoteModule</title>
<polygon fill="#8dd3c7" stroke="#000000" points="384.7619,-187 381.7619,-191 360.7619,-191 357.7619,-187 291.2381,-187 291.2381,-151 384.7619,-151 384.7619,-187"/>
<text text-anchor="middle" x="338" y="-164.8" font-family="Times,serif" font-size="14.00" fill="#000000">QuoteModule</text>
</g>
<!-- CreateQuoteComponent&#45;&gt;QuoteModule -->
<g id="edge1" class="edge">
<title>CreateQuoteComponent&#45;&gt;QuoteModule</title>
<path fill="none" stroke="#000000" d="M606,-122.1061C606,-141.3391 606,-169 606,-169 606,-169 394.9887,-169 394.9887,-169"/>
<polygon fill="#000000" stroke="#000000" points="394.9887,-165.5001 384.9887,-169 394.9887,-172.5001 394.9887,-165.5001"/>
</g>
<!-- QuoteDetailsComponent -->
<g id="node2" class="node">
<title>QuoteDetailsComponent</title>
<polygon fill="#ffffb3" stroke="#000000" points="511.6965,-122 356.3035,-122 356.3035,-86 511.6965,-86 511.6965,-122"/>
<text text-anchor="middle" x="434" y="-99.8" font-family="Times,serif" font-size="14.00" fill="#000000">QuoteDetailsComponent</text>
</g>
<!-- QuoteDetailsComponent&#45;&gt;QuoteModule -->
<g id="edge2" class="edge">
<title>QuoteDetailsComponent&#45;&gt;QuoteModule</title>
<path fill="none" stroke="#000000" d="M370.6413,-122.1061C370.6413,-122.1061 370.6413,-140.991 370.6413,-140.991"/>
<polygon fill="#000000" stroke="#000000" points="367.1414,-140.9909 370.6413,-150.991 374.1414,-140.991 367.1414,-140.9909"/>
</g>
<!-- RequestQuoteFormComponent -->
<g id="node3" class="node">
<title>RequestQuoteFormComponent</title>
<polygon fill="#ffffb3" stroke="#000000" points="338.479,-122 147.521,-122 147.521,-86 338.479,-86 338.479,-122"/>
<text text-anchor="middle" x="243" y="-99.8" font-family="Times,serif" font-size="14.00" fill="#000000">RequestQuoteFormComponent</text>
</g>
<!-- RequestQuoteFormComponent&#45;&gt;QuoteModule -->
<g id="edge3" class="edge">
<title>RequestQuoteFormComponent&#45;&gt;QuoteModule</title>
<path fill="none" stroke="#000000" d="M314.8044,-122.1061C314.8044,-122.1061 314.8044,-140.991 314.8044,-140.991"/>
<polygon fill="#000000" stroke="#000000" points="311.3044,-140.9909 314.8044,-150.991 318.3044,-140.991 311.3044,-140.9909"/>
</g>
<!-- PricingModule -->
<g id="node5" class="node">
<title>PricingModule</title>
<polygon fill="#8dd3c7" stroke="#000000" points="123.9888,-122 120.9888,-126 99.9888,-126 96.9888,-122 24.0112,-122 24.0112,-86 123.9888,-86 123.9888,-122"/>
<text text-anchor="middle" x="74" y="-99.8" font-family="Times,serif" font-size="14.00" fill="#000000">PricingModule</text>
</g>
<!-- PricingModule&#45;&gt;QuoteModule -->
<g id="edge4" class="edge">
<title>PricingModule&#45;&gt;QuoteModule</title>
<path fill="none" stroke="#000000" d="M74,-122.1061C74,-141.3391 74,-169 74,-169 74,-169 281.1063,-169 281.1063,-169"/>
<polygon fill="#000000" stroke="#000000" points="281.1063,-172.5001 291.1063,-169 281.1063,-165.5001 281.1063,-172.5001"/>
</g>
</g>
</svg>
