<?xml version="1.0" encoding="UTF-8" standalone="no"?>
<!DOCTYPE svg PUBLIC "-//W3C//DTD SVG 1.1//EN"
 "http://www.w3.org/Graphics/SVG/1.1/DTD/svg11.dtd">
<!-- Generated by graphviz version 2.40.1 (20161225.0304)
 -->
<!-- Title: dependencies Pages: 1 -->
<svg width="920pt" height="284pt"
 viewBox="0.00 0.00 920.00 284.00" xmlns="http://www.w3.org/2000/svg" xmlns:xlink="http://www.w3.org/1999/xlink">
<g id="graph0" class="graph" transform="scale(1 1) rotate(0) translate(4 280)">
<title>dependencies</title>
<polygon fill="#ffffff" stroke="transparent" points="-4,4 -4,-280 916,-280 916,4 -4,4"/>
<text text-anchor="start" x="435.0091" y="-42.4" font-family="sans-serif" font-weight="bold" font-size="14.00" fill="#000000">Legend</text>
<polygon fill="#ffffb3" stroke="transparent" points="222,-10 222,-30 242,-30 242,-10 222,-10"/>
<text text-anchor="start" x="245.629" y="-15.4" font-family="sans-serif" font-size="14.00" fill="#000000"> &#160;Declarations</text>
<polygon fill="#8dd3c7" stroke="transparent" points="335,-10 335,-30 355,-30 355,-10 335,-10"/>
<text text-anchor="start" x="358.7251" y="-15.4" font-family="sans-serif" font-size="14.00" fill="#000000"> &#160;Module</text>
<polygon fill="#80b1d3" stroke="transparent" points="421,-10 421,-30 441,-30 441,-10 421,-10"/>
<text text-anchor="start" x="444.7812" y="-15.4" font-family="sans-serif" font-size="14.00" fill="#000000"> &#160;Bootstrap</text>
<polygon fill="#fdb462" stroke="transparent" points="518,-10 518,-30 538,-30 538,-10 518,-10"/>
<text text-anchor="start" x="541.6732" y="-15.4" font-family="sans-serif" font-size="14.00" fill="#000000"> &#160;Providers</text>
<polygon fill="#fb8072" stroke="transparent" points="614,-10 614,-30 634,-30 634,-10 614,-10"/>
<text text-anchor="start" x="637.7258" y="-15.4" font-family="sans-serif" font-size="14.00" fill="#000000"> &#160;Exports</text>
<g id="clust1" class="cluster">
<title>cluster_ComponentModule</title>
<polygon fill="none" stroke="#000000" stroke-dasharray="1,5" points="8,-70 8,-268 904,-268 904,-70 8,-70"/>
</g>
<g id="clust2" class="cluster">
<title>cluster_ComponentModule_declarations</title>
<polygon fill="none" stroke="#000000" points="140,-78 140,-130 896,-130 896,-78 140,-78"/>
</g>
<g id="clust8" class="cluster">
<title>cluster_ComponentModule_imports</title>
<polygon fill="none" stroke="#000000" points="16,-78 16,-130 132,-130 132,-78 16,-78"/>
</g>
<g id="clust9" class="cluster">
<title>cluster_ComponentModule_exports</title>
<polygon fill="none" stroke="#000000" points="236,-208 236,-260 668,-260 668,-208 236,-208"/>
</g>
<!-- AttachmentComponent -->
<g id="node1" class="node">
<title>AttachmentComponent</title>
<polygon fill="#ffffb3" stroke="#000000" points="888.1456,-122 741.8544,-122 741.8544,-86 888.1456,-86 888.1456,-122"/>
<text text-anchor="middle" x="815" y="-99.8" font-family="Times,serif" font-size="14.00" fill="#000000">AttachmentComponent</text>
</g>
<!-- ComponentModule -->
<g id="node6" class="node">
<title>ComponentModule</title>
<polygon fill="#8dd3c7" stroke="#000000" points="510.3823,-187 507.3823,-191 486.3823,-191 483.3823,-187 385.6177,-187 385.6177,-151 510.3823,-151 510.3823,-187"/>
<text text-anchor="middle" x="448" y="-164.8" font-family="Times,serif" font-size="14.00" fill="#000000">ComponentModule</text>
</g>
<!-- AttachmentComponent&#45;&gt;ComponentModule -->
<g id="edge1" class="edge">
<title>AttachmentComponent&#45;&gt;ComponentModule</title>
<path fill="none" stroke="#000000" d="M815,-122.1061C815,-141.3391 815,-169 815,-169 815,-169 520.6725,-169 520.6725,-169"/>
<polygon fill="#000000" stroke="#000000" points="520.6726,-165.5001 510.6725,-169 520.6725,-172.5001 520.6726,-165.5001"/>
</g>
<!-- AutoFocusDirective -->
<g id="node2" class="node">
<title>AutoFocusDirective</title>
<polygon fill="#ffffb3" stroke="#000000" points="723.5227,-122 594.4773,-122 594.4773,-86 723.5227,-86 723.5227,-122"/>
<text text-anchor="middle" x="659" y="-99.8" font-family="Times,serif" font-size="14.00" fill="#000000">AutoFocusDirective</text>
</g>
<!-- AutoFocusDirective&#45;&gt;ComponentModule -->
<g id="edge2" class="edge">
<title>AutoFocusDirective&#45;&gt;ComponentModule</title>
<path fill="none" stroke="#000000" d="M626.875,-122.027C626.875,-138.3976 626.875,-160 626.875,-160 626.875,-160 520.5618,-160 520.5618,-160"/>
<polygon fill="#000000" stroke="#000000" points="520.5618,-156.5001 510.5618,-160 520.5618,-163.5001 520.5618,-156.5001"/>
</g>
<!-- FooterComponent -->
<g id="node3" class="node">
<title>FooterComponent</title>
<polygon fill="#ffffb3" stroke="#000000" points="575.8809,-122 458.1191,-122 458.1191,-86 575.8809,-86 575.8809,-122"/>
<text text-anchor="middle" x="517" y="-99.8" font-family="Times,serif" font-size="14.00" fill="#000000">FooterComponent</text>
</g>
<!-- FooterComponent&#45;&gt;ComponentModule -->
<g id="edge3" class="edge">
<title>FooterComponent&#45;&gt;ComponentModule</title>
<path fill="none" stroke="#000000" d="M484.2504,-122.1061C484.2504,-122.1061 484.2504,-140.991 484.2504,-140.991"/>
<polygon fill="#000000" stroke="#000000" points="480.7504,-140.9909 484.2504,-150.991 487.7504,-140.991 480.7504,-140.9909"/>
</g>
<!-- HeaderComponent -->
<g id="node4" class="node">
<title>HeaderComponent</title>
<polygon fill="#ffffb3" stroke="#000000" points="439.7437,-122 318.2563,-122 318.2563,-86 439.7437,-86 439.7437,-122"/>
<text text-anchor="middle" x="379" y="-99.8" font-family="Times,serif" font-size="14.00" fill="#000000">HeaderComponent</text>
</g>
<!-- HeaderComponent&#45;&gt;ComponentModule -->
<g id="edge4" class="edge">
<title>HeaderComponent&#45;&gt;ComponentModule</title>
<path fill="none" stroke="#000000" d="M412.7153,-122.1061C412.7153,-122.1061 412.7153,-140.991 412.7153,-140.991"/>
<polygon fill="#000000" stroke="#000000" points="409.2154,-140.9909 412.7153,-150.991 416.2154,-140.991 409.2154,-140.9909"/>
</g>
<!-- NavAccountComponent -->
<g id="node5" class="node">
<title>NavAccountComponent</title>
<polygon fill="#ffffb3" stroke="#000000" points="300.08,-122 147.92,-122 147.92,-86 300.08,-86 300.08,-122"/>
<text text-anchor="middle" x="224" y="-99.8" font-family="Times,serif" font-size="14.00" fill="#000000">NavAccountComponent</text>
</g>
<!-- NavAccountComponent&#45;&gt;ComponentModule -->
<g id="edge5" class="edge">
<title>NavAccountComponent&#45;&gt;ComponentModule</title>
<path fill="none" stroke="#000000" d="M272.2092,-122.027C272.2092,-138.3976 272.2092,-160 272.2092,-160 272.2092,-160 375.5278,-160 375.5278,-160"/>
<polygon fill="#000000" stroke="#000000" points="375.5278,-163.5001 385.5278,-160 375.5277,-156.5001 375.5278,-163.5001"/>
</g>
<!-- AutoFocusDirective  -->
<g id="node8" class="node">
<title>AutoFocusDirective </title>
<polygon fill="#fb8072" stroke="#000000" points="659.5218,-252 526.4782,-252 526.4782,-216 659.5218,-216 659.5218,-252"/>
<text text-anchor="middle" x="593" y="-229.8" font-family="Times,serif" font-size="14.00" fill="#000000">AutoFocusDirective </text>
</g>
<!-- ComponentModule&#45;&gt;AutoFocusDirective  -->
<g id="edge7" class="edge">
<title>ComponentModule&#45;&gt;AutoFocusDirective </title>
<path fill="none" stroke="#000000" stroke-dasharray="5,2" d="M510.4215,-178C532.1581,-178 551.2148,-178 551.2148,-178 551.2148,-178 551.2148,-205.973 551.2148,-205.973"/>
<polygon fill="#000000" stroke="#000000" points="547.7148,-205.973 551.2148,-215.973 554.7148,-205.973 547.7148,-205.973"/>
</g>
<!-- FooterComponent  -->
<g id="node9" class="node">
<title>FooterComponent </title>
<polygon fill="#fb8072" stroke="#000000" points="508.8814,-252 387.1186,-252 387.1186,-216 508.8814,-216 508.8814,-252"/>
<text text-anchor="middle" x="448" y="-229.8" font-family="Times,serif" font-size="14.00" fill="#000000">FooterComponent </text>
</g>
<!-- ComponentModule&#45;&gt;FooterComponent  -->
<g id="edge8" class="edge">
<title>ComponentModule&#45;&gt;FooterComponent </title>
<path fill="none" stroke="#000000" stroke-dasharray="5,2" d="M448,-187.1061C448,-187.1061 448,-205.991 448,-205.991"/>
<polygon fill="#000000" stroke="#000000" points="444.5001,-205.9909 448,-215.991 451.5001,-205.991 444.5001,-205.9909"/>
</g>
<!-- HeaderComponent  -->
<g id="node10" class="node">
<title>HeaderComponent </title>
<polygon fill="#fb8072" stroke="#000000" points="369.7436,-252 244.2564,-252 244.2564,-216 369.7436,-216 369.7436,-252"/>
<text text-anchor="middle" x="307" y="-229.8" font-family="Times,serif" font-size="14.00" fill="#000000">HeaderComponent </text>
</g>
<!-- ComponentModule&#45;&gt;HeaderComponent  -->
<g id="edge9" class="edge">
<title>ComponentModule&#45;&gt;HeaderComponent </title>
<path fill="none" stroke="#000000" stroke-dasharray="5,2" d="M385.3271,-178C363.2749,-178 343.875,-178 343.875,-178 343.875,-178 343.875,-205.973 343.875,-205.973"/>
<polygon fill="#000000" stroke="#000000" points="340.3751,-205.973 343.875,-215.973 347.3751,-205.973 340.3751,-205.973"/>
</g>
<!-- PricingModule -->
<g id="node7" class="node">
<title>PricingModule</title>
<polygon fill="#8dd3c7" stroke="#000000" points="123.9888,-122 120.9888,-126 99.9888,-126 96.9888,-122 24.0112,-122 24.0112,-86 123.9888,-86 123.9888,-122"/>
<text text-anchor="middle" x="74" y="-99.8" font-family="Times,serif" font-size="14.00" fill="#000000">PricingModule</text>
</g>
<!-- PricingModule&#45;&gt;ComponentModule -->
<g id="edge6" class="edge">
<title>PricingModule&#45;&gt;ComponentModule</title>
<path fill="none" stroke="#000000" d="M74,-122.1061C74,-141.3391 74,-169 74,-169 74,-169 375.4008,-169 375.4008,-169"/>
<polygon fill="#000000" stroke="#000000" points="375.4008,-172.5001 385.4008,-169 375.4008,-165.5001 375.4008,-172.5001"/>
</g>
</g>
</svg>
