<?xml version="1.0" encoding="UTF-8" standalone="no"?>
<!DOCTYPE svg PUBLIC "-//W3C//DTD SVG 1.1//EN"
 "http://www.w3.org/Graphics/SVG/1.1/DTD/svg11.dtd">
<!-- Generated by graphviz version 2.40.1 (20161225.0304)
 -->
<!-- Title: dependencies Pages: 1 -->
<svg width="882pt" height="211pt"
 viewBox="0.00 0.00 882.00 211.00" xmlns="http://www.w3.org/2000/svg" xmlns:xlink="http://www.w3.org/1999/xlink">
<g id="graph0" class="graph" transform="scale(1 1) rotate(0) translate(4 207)">
<title>dependencies</title>
<polygon fill="#ffffff" stroke="transparent" points="-4,4 -4,-207 878,-207 878,4 -4,4"/>
<text text-anchor="start" x="416.0091" y="-42.4" font-family="sans-serif" font-weight="bold" font-size="14.00" fill="#000000">Legend</text>
<polygon fill="#ffffb3" stroke="transparent" points="203,-10 203,-30 223,-30 223,-10 203,-10"/>
<text text-anchor="start" x="226.629" y="-15.4" font-family="sans-serif" font-size="14.00" fill="#000000"> &#160;Declarations</text>
<polygon fill="#8dd3c7" stroke="transparent" points="316,-10 316,-30 336,-30 336,-10 316,-10"/>
<text text-anchor="start" x="339.7251" y="-15.4" font-family="sans-serif" font-size="14.00" fill="#000000"> &#160;Module</text>
<polygon fill="#80b1d3" stroke="transparent" points="402,-10 402,-30 422,-30 422,-10 402,-10"/>
<text text-anchor="start" x="425.7812" y="-15.4" font-family="sans-serif" font-size="14.00" fill="#000000"> &#160;Bootstrap</text>
<polygon fill="#fdb462" stroke="transparent" points="499,-10 499,-30 519,-30 519,-10 499,-10"/>
<text text-anchor="start" x="522.6732" y="-15.4" font-family="sans-serif" font-size="14.00" fill="#000000"> &#160;Providers</text>
<polygon fill="#fb8072" stroke="transparent" points="595,-10 595,-30 615,-30 615,-10 595,-10"/>
<text text-anchor="start" x="618.7258" y="-15.4" font-family="sans-serif" font-size="14.00" fill="#000000"> &#160;Exports</text>
<g id="clust1" class="cluster">
<title>cluster_ManageCartModule</title>
<polygon fill="none" stroke="#000000" stroke-dasharray="1,5" points="8,-70 8,-195 866,-195 866,-70 8,-70"/>
</g>
<g id="clust2" class="cluster">
<title>cluster_ManageCartModule_declarations</title>
<polygon fill="none" stroke="#000000" points="358,-78 358,-130 858,-130 858,-78 358,-78"/>
</g>
<g id="clust6" class="cluster">
<title>cluster_ManageCartModule_imports</title>
<polygon fill="none" stroke="#000000" points="16,-78 16,-130 350,-130 350,-78 16,-78"/>
</g>
<!-- CartSummaryComponent -->
<g id="node1" class="node">
<title>CartSummaryComponent</title>
<polygon fill="#ffffb3" stroke="#000000" points="849.8738,-122 690.1262,-122 690.1262,-86 849.8738,-86 849.8738,-122"/>
<text text-anchor="middle" x="770" y="-99.8" font-family="Times,serif" font-size="14.00" fill="#000000">CartSummaryComponent</text>
</g>
<!-- ManageCartModule -->
<g id="node4" class="node">
<title>ManageCartModule</title>
<polygon fill="#8dd3c7" stroke="#000000" points="433.2409,-187 430.2409,-191 409.2409,-191 406.2409,-187 304.7591,-187 304.7591,-151 433.2409,-151 433.2409,-187"/>
<text text-anchor="middle" x="369" y="-164.8" font-family="Times,serif" font-size="14.00" fill="#000000">ManageCartModule</text>
</g>
<!-- CartSummaryComponent&#45;&gt;ManageCartModule -->
<g id="edge1" class="edge">
<title>CartSummaryComponent&#45;&gt;ManageCartModule</title>
<path fill="none" stroke="#000000" d="M770,-122.2843C770,-143.3211 770,-175 770,-175 770,-175 443.4276,-175 443.4276,-175"/>
<polygon fill="#000000" stroke="#000000" points="443.4276,-171.5001 433.4276,-175 443.4276,-178.5001 443.4276,-171.5001"/>
</g>
<!-- CartTableComponent -->
<g id="node2" class="node">
<title>CartTableComponent</title>
<polygon fill="#ffffb3" stroke="#000000" points="671.8075,-122 534.1925,-122 534.1925,-86 671.8075,-86 671.8075,-122"/>
<text text-anchor="middle" x="603" y="-99.8" font-family="Times,serif" font-size="14.00" fill="#000000">CartTableComponent</text>
</g>
<!-- CartTableComponent&#45;&gt;ManageCartModule -->
<g id="edge2" class="edge">
<title>CartTableComponent&#45;&gt;ManageCartModule</title>
<path fill="none" stroke="#000000" d="M603,-122.0225C603,-139.3734 603,-163 603,-163 603,-163 443.251,-163 443.251,-163"/>
<polygon fill="#000000" stroke="#000000" points="443.2511,-159.5001 433.251,-163 443.251,-166.5001 443.2511,-159.5001"/>
</g>
<!-- ManageCartComponent -->
<g id="node3" class="node">
<title>ManageCartComponent</title>
<polygon fill="#ffffb3" stroke="#000000" points="516.024,-122 365.976,-122 365.976,-86 516.024,-86 516.024,-122"/>
<text text-anchor="middle" x="441" y="-99.8" font-family="Times,serif" font-size="14.00" fill="#000000">ManageCartComponent</text>
</g>
<!-- ManageCartComponent&#45;&gt;ManageCartModule -->
<g id="edge3" class="edge">
<title>ManageCartComponent&#45;&gt;ManageCartModule</title>
<path fill="none" stroke="#000000" d="M399.5544,-122.1061C399.5544,-122.1061 399.5544,-140.991 399.5544,-140.991"/>
<polygon fill="#000000" stroke="#000000" points="396.0544,-140.9909 399.5544,-150.991 403.0544,-140.991 396.0544,-140.9909"/>
</g>
<!-- AlertModule -->
<g id="node5" class="node">
<title>AlertModule</title>
<polygon fill="#8dd3c7" stroke="#000000" points="342.3134,-122 339.3134,-126 318.3134,-126 315.3134,-122 253.6866,-122 253.6866,-86 342.3134,-86 342.3134,-122"/>
<text text-anchor="middle" x="298" y="-99.8" font-family="Times,serif" font-size="14.00" fill="#000000">AlertModule</text>
</g>
<!-- AlertModule&#45;&gt;ManageCartModule -->
<g id="edge4" class="edge">
<title>AlertModule&#45;&gt;ManageCartModule</title>
<path fill="none" stroke="#000000" d="M323.3931,-122.1061C323.3931,-122.1061 323.3931,-140.991 323.3931,-140.991"/>
<polygon fill="#000000" stroke="#000000" points="319.8931,-140.9909 323.3931,-150.991 326.8931,-140.991 319.8931,-140.9909"/>
</g>
<!-- PricingModule -->
<g id="node6" class="node">
<title>PricingModule</title>
<polygon fill="#8dd3c7" stroke="#000000" points="235.9888,-122 232.9888,-126 211.9888,-126 208.9888,-122 136.0112,-122 136.0112,-86 235.9888,-86 235.9888,-122"/>
<text text-anchor="middle" x="186" y="-99.8" font-family="Times,serif" font-size="14.00" fill="#000000">PricingModule</text>
</g>
<!-- PricingModule&#45;&gt;ManageCartModule -->
<g id="edge5" class="edge">
<title>PricingModule&#45;&gt;ManageCartModule</title>
<path fill="none" stroke="#000000" d="M186,-122.0225C186,-139.3734 186,-163 186,-163 186,-163 294.7384,-163 294.7384,-163"/>
<polygon fill="#000000" stroke="#000000" points="294.7384,-166.5001 304.7384,-163 294.7383,-159.5001 294.7384,-166.5001"/>
</g>
<!-- QuoteModule -->
<g id="node7" class="node">
<title>QuoteModule</title>
<polygon fill="#8dd3c7" stroke="#000000" points="117.7619,-122 114.7619,-126 93.7619,-126 90.7619,-122 24.2381,-122 24.2381,-86 117.7619,-86 117.7619,-122"/>
<text text-anchor="middle" x="71" y="-99.8" font-family="Times,serif" font-size="14.00" fill="#000000">QuoteModule</text>
</g>
<!-- QuoteModule&#45;&gt;ManageCartModule -->
<g id="edge6" class="edge">
<title>QuoteModule&#45;&gt;ManageCartModule</title>
<path fill="none" stroke="#000000" d="M71,-122.2843C71,-143.3211 71,-175 71,-175 71,-175 294.7053,-175 294.7053,-175"/>
<polygon fill="#000000" stroke="#000000" points="294.7054,-178.5001 304.7053,-175 294.7053,-171.5001 294.7054,-178.5001"/>
</g>
</g>
</svg>
