<?xml version="1.0" encoding="UTF-8" standalone="no"?>
<!DOCTYPE svg PUBLIC "-//W3C//DTD SVG 1.1//EN"
 "http://www.w3.org/Graphics/SVG/1.1/DTD/svg11.dtd">
<!-- Generated by graphviz version 2.40.1 (20161225.0304)
 -->
<!-- Title: dependencies Pages: 1 -->
<svg width="892pt" height="211pt"
 viewBox="0.00 0.00 892.00 211.00" xmlns="http://www.w3.org/2000/svg" xmlns:xlink="http://www.w3.org/1999/xlink">
<g id="graph0" class="graph" transform="scale(1 1) rotate(0) translate(4 207)">
<title>dependencies</title>
<polygon fill="#ffffff" stroke="transparent" points="-4,4 -4,-207 888,-207 888,4 -4,4"/>
<text text-anchor="start" x="421.0091" y="-42.4" font-family="sans-serif" font-weight="bold" font-size="14.00" fill="#000000">Legend</text>
<polygon fill="#ffffb3" stroke="transparent" points="208,-10 208,-30 228,-30 228,-10 208,-10"/>
<text text-anchor="start" x="231.629" y="-15.4" font-family="sans-serif" font-size="14.00" fill="#000000"> &#160;Declarations</text>
<polygon fill="#8dd3c7" stroke="transparent" points="321,-10 321,-30 341,-30 341,-10 321,-10"/>
<text text-anchor="start" x="344.7251" y="-15.4" font-family="sans-serif" font-size="14.00" fill="#000000"> &#160;Module</text>
<polygon fill="#80b1d3" stroke="transparent" points="407,-10 407,-30 427,-30 427,-10 407,-10"/>
<text text-anchor="start" x="430.7812" y="-15.4" font-family="sans-serif" font-size="14.00" fill="#000000"> &#160;Bootstrap</text>
<polygon fill="#fdb462" stroke="transparent" points="504,-10 504,-30 524,-30 524,-10 504,-10"/>
<text text-anchor="start" x="527.6732" y="-15.4" font-family="sans-serif" font-size="14.00" fill="#000000"> &#160;Providers</text>
<polygon fill="#fb8072" stroke="transparent" points="600,-10 600,-30 620,-30 620,-10 600,-10"/>
<text text-anchor="start" x="623.7258" y="-15.4" font-family="sans-serif" font-size="14.00" fill="#000000"> &#160;Exports</text>
<g id="clust1" class="cluster">
<title>cluster_QuotesModule</title>
<polygon fill="none" stroke="#000000" stroke-dasharray="1,5" points="8,-70 8,-195 876,-195 876,-70 8,-70"/>
</g>
<g id="clust2" class="cluster">
<title>cluster_QuotesModule_declarations</title>
<polygon fill="none" stroke="#000000" points="546,-78 546,-130 868,-130 868,-78 546,-78"/>
</g>
<g id="clust5" class="cluster">
<title>cluster_QuotesModule_imports</title>
<polygon fill="none" stroke="#000000" points="16,-78 16,-130 538,-130 538,-78 16,-78"/>
</g>
<!-- QuoteDetailComponent -->
<g id="node1" class="node">
<title>QuoteDetailComponent</title>
<polygon fill="#ffffb3" stroke="#000000" points="859.752,-122 710.248,-122 710.248,-86 859.752,-86 859.752,-122"/>
<text text-anchor="middle" x="785" y="-99.8" font-family="Times,serif" font-size="14.00" fill="#000000">QuoteDetailComponent</text>
</g>
<!-- QuotesModule -->
<g id="node3" class="node">
<title>QuotesModule</title>
<polygon fill="#8dd3c7" stroke="#000000" points="458.7064,-187 455.7064,-191 434.7064,-191 431.7064,-187 359.2936,-187 359.2936,-151 458.7064,-151 458.7064,-187"/>
<text text-anchor="middle" x="409" y="-164.8" font-family="Times,serif" font-size="14.00" fill="#000000">QuotesModule</text>
</g>
<!-- QuoteDetailComponent&#45;&gt;QuotesModule -->
<g id="edge1" class="edge">
<title>QuoteDetailComponent&#45;&gt;QuotesModule</title>
<path fill="none" stroke="#000000" d="M785,-122.2843C785,-143.3211 785,-175 785,-175 785,-175 468.9299,-175 468.9299,-175"/>
<polygon fill="#000000" stroke="#000000" points="468.9299,-171.5001 458.9299,-175 468.9299,-178.5001 468.9299,-171.5001"/>
</g>
<!-- QuoteListComponent -->
<g id="node2" class="node">
<title>QuoteListComponent</title>
<polygon fill="#ffffb3" stroke="#000000" points="691.823,-122 554.177,-122 554.177,-86 691.823,-86 691.823,-122"/>
<text text-anchor="middle" x="623" y="-99.8" font-family="Times,serif" font-size="14.00" fill="#000000">QuoteListComponent</text>
</g>
<!-- QuoteListComponent&#45;&gt;QuotesModule -->
<g id="edge2" class="edge">
<title>QuoteListComponent&#45;&gt;QuotesModule</title>
<path fill="none" stroke="#000000" d="M623,-122.0225C623,-139.3734 623,-163 623,-163 623,-163 468.6338,-163 468.6338,-163"/>
<polygon fill="#000000" stroke="#000000" points="468.6338,-159.5001 458.6338,-163 468.6338,-166.5001 468.6338,-159.5001"/>
</g>
<!-- DataFilterModule -->
<g id="node4" class="node">
<title>DataFilterModule</title>
<polygon fill="#8dd3c7" stroke="#000000" points="530.3062,-122 527.3062,-126 506.3062,-126 503.3062,-122 413.6938,-122 413.6938,-86 530.3062,-86 530.3062,-122"/>
<text text-anchor="middle" x="472" y="-99.8" font-family="Times,serif" font-size="14.00" fill="#000000">DataFilterModule</text>
</g>
<!-- DataFilterModule&#45;&gt;QuotesModule -->
<g id="edge3" class="edge">
<title>DataFilterModule&#45;&gt;QuotesModule</title>
<path fill="none" stroke="#000000" d="M436.2251,-122.1061C436.2251,-122.1061 436.2251,-140.991 436.2251,-140.991"/>
<polygon fill="#000000" stroke="#000000" points="432.7252,-140.9909 436.2251,-150.991 439.7252,-140.991 432.7252,-140.9909"/>
</g>
<!-- PricingModule -->
<g id="node5" class="node">
<title>PricingModule</title>
<polygon fill="#8dd3c7" stroke="#000000" points="395.9888,-122 392.9888,-126 371.9888,-126 368.9888,-122 296.0112,-122 296.0112,-86 395.9888,-86 395.9888,-122"/>
<text text-anchor="middle" x="346" y="-99.8" font-family="Times,serif" font-size="14.00" fill="#000000">PricingModule</text>
</g>
<!-- PricingModule&#45;&gt;QuotesModule -->
<g id="edge4" class="edge">
<title>PricingModule&#45;&gt;QuotesModule</title>
<path fill="none" stroke="#000000" d="M377.6957,-122.1061C377.6957,-122.1061 377.6957,-140.991 377.6957,-140.991"/>
<polygon fill="#000000" stroke="#000000" points="374.1957,-140.9909 377.6957,-150.991 381.1957,-140.991 374.1957,-140.9909"/>
</g>
<!-- QuotesRoutingModule -->
<g id="node6" class="node">
<title>QuotesRoutingModule</title>
<polygon fill="#8dd3c7" stroke="#000000" points="278.3244,-122 275.3244,-126 254.3244,-126 251.3244,-122 133.6756,-122 133.6756,-86 278.3244,-86 278.3244,-122"/>
<text text-anchor="middle" x="206" y="-99.8" font-family="Times,serif" font-size="14.00" fill="#000000">QuotesRoutingModule</text>
</g>
<!-- QuotesRoutingModule&#45;&gt;QuotesModule -->
<g id="edge5" class="edge">
<title>QuotesRoutingModule&#45;&gt;QuotesModule</title>
<path fill="none" stroke="#000000" d="M206,-122.0225C206,-139.3734 206,-163 206,-163 206,-163 349.3406,-163 349.3406,-163"/>
<polygon fill="#000000" stroke="#000000" points="349.3406,-166.5001 359.3406,-163 349.3406,-159.5001 349.3406,-166.5001"/>
</g>
<!-- TableModule -->
<g id="node7" class="node">
<title>TableModule</title>
<polygon fill="#8dd3c7" stroke="#000000" points="115.9232,-122 112.9232,-126 91.9232,-126 88.9232,-122 24.0768,-122 24.0768,-86 115.9232,-86 115.9232,-122"/>
<text text-anchor="middle" x="70" y="-99.8" font-family="Times,serif" font-size="14.00" fill="#000000">TableModule</text>
</g>
<!-- TableModule&#45;&gt;QuotesModule -->
<g id="edge6" class="edge">
<title>TableModule&#45;&gt;QuotesModule</title>
<path fill="none" stroke="#000000" d="M70,-122.2843C70,-143.3211 70,-175 70,-175 70,-175 349.3434,-175 349.3434,-175"/>
<polygon fill="#000000" stroke="#000000" points="349.3435,-178.5001 359.3434,-175 349.3434,-171.5001 349.3435,-178.5001"/>
</g>
</g>
</svg>
