<?xml version="1.0" encoding="UTF-8" standalone="no"?>
<!DOCTYPE svg PUBLIC "-//W3C//DTD SVG 1.1//EN"
 "http://www.w3.org/Graphics/SVG/1.1/DTD/svg11.dtd">
<!-- Generated by graphviz version 2.40.1 (20161225.0304)
 -->
<!-- Title: dependencies Pages: 1 -->
<svg width="504pt" height="211pt"
 viewBox="0.00 0.00 504.00 211.00" xmlns="http://www.w3.org/2000/svg" xmlns:xlink="http://www.w3.org/1999/xlink">
<g id="graph0" class="graph" transform="scale(1 1) rotate(0) translate(4 207)">
<title>dependencies</title>
<polygon fill="#ffffff" stroke="transparent" points="-4,4 -4,-207 500,-207 500,4 -4,4"/>
<text text-anchor="start" x="227.0091" y="-42.4" font-family="sans-serif" font-weight="bold" font-size="14.00" fill="#000000">Legend</text>
<polygon fill="#ffffb3" stroke="transparent" points="14,-10 14,-30 34,-30 34,-10 14,-10"/>
<text text-anchor="start" x="37.629" y="-15.4" font-family="sans-serif" font-size="14.00" fill="#000000"> &#160;Declarations</text>
<polygon fill="#8dd3c7" stroke="transparent" points="127,-10 127,-30 147,-30 147,-10 127,-10"/>
<text text-anchor="start" x="150.7251" y="-15.4" font-family="sans-serif" font-size="14.00" fill="#000000"> &#160;Module</text>
<polygon fill="#80b1d3" stroke="transparent" points="213,-10 213,-30 233,-30 233,-10 213,-10"/>
<text text-anchor="start" x="236.7812" y="-15.4" font-family="sans-serif" font-size="14.00" fill="#000000"> &#160;Bootstrap</text>
<polygon fill="#fdb462" stroke="transparent" points="310,-10 310,-30 330,-30 330,-10 310,-10"/>
<text text-anchor="start" x="333.6732" y="-15.4" font-family="sans-serif" font-size="14.00" fill="#000000"> &#160;Providers</text>
<polygon fill="#fb8072" stroke="transparent" points="406,-10 406,-30 426,-30 426,-10 406,-10"/>
<text text-anchor="start" x="429.7258" y="-15.4" font-family="sans-serif" font-size="14.00" fill="#000000"> &#160;Exports</text>
<g id="clust1" class="cluster">
<title>cluster_OrderModule</title>
<polygon fill="none" stroke="#000000" stroke-dasharray="1,5" points="93,-70 93,-195 403,-195 403,-70 93,-70"/>
</g>
<g id="clust2" class="cluster">
<title>cluster_OrderModule_declarations</title>
<polygon fill="none" stroke="#000000" points="225,-78 225,-130 395,-130 395,-78 225,-78"/>
</g>
<g id="clust4" class="cluster">
<title>cluster_OrderModule_imports</title>
<polygon fill="none" stroke="#000000" points="101,-78 101,-130 217,-130 217,-78 101,-78"/>
</g>
<!-- OrderDetailsComponent -->
<g id="node1" class="node">
<title>OrderDetailsComponent</title>
<polygon fill="#ffffb3" stroke="#000000" points="386.6275,-122 233.3725,-122 233.3725,-86 386.6275,-86 386.6275,-122"/>
<text text-anchor="middle" x="310" y="-99.8" font-family="Times,serif" font-size="14.00" fill="#000000">OrderDetailsComponent</text>
</g>
<!-- OrderModule -->
<g id="node2" class="node">
<title>OrderModule</title>
<polygon fill="#8dd3c7" stroke="#000000" points="280.1924,-187 277.1924,-191 256.1924,-191 253.1924,-187 187.8076,-187 187.8076,-151 280.1924,-151 280.1924,-187"/>
<text text-anchor="middle" x="234" y="-164.8" font-family="Times,serif" font-size="14.00" fill="#000000">OrderModule</text>
</g>
<!-- OrderDetailsComponent&#45;&gt;OrderModule -->
<g id="edge1" class="edge">
<title>OrderDetailsComponent&#45;&gt;OrderModule</title>
<path fill="none" stroke="#000000" d="M256.6413,-122.1061C256.6413,-122.1061 256.6413,-140.991 256.6413,-140.991"/>
<polygon fill="#000000" stroke="#000000" points="253.1414,-140.9909 256.6413,-150.991 260.1414,-140.991 253.1414,-140.9909"/>
</g>
<!-- PricingModule -->
<g id="node3" class="node">
<title>PricingModule</title>
<polygon fill="#8dd3c7" stroke="#000000" points="208.9888,-122 205.9888,-126 184.9888,-126 181.9888,-122 109.0112,-122 109.0112,-86 208.9888,-86 208.9888,-122"/>
<text text-anchor="middle" x="159" y="-99.8" font-family="Times,serif" font-size="14.00" fill="#000000">PricingModule</text>
</g>
<!-- PricingModule&#45;&gt;OrderModule -->
<g id="edge2" class="edge">
<title>PricingModule&#45;&gt;OrderModule</title>
<path fill="none" stroke="#000000" d="M198.4492,-122.1061C198.4492,-122.1061 198.4492,-140.991 198.4492,-140.991"/>
<polygon fill="#000000" stroke="#000000" points="194.9492,-140.9909 198.4492,-150.991 201.9492,-140.991 194.9492,-140.9909"/>
</g>
</g>
</svg>
