<?xml version="1.0" encoding="UTF-8" standalone="no"?>
<!DOCTYPE svg PUBLIC "-//W3C//DTD SVG 1.1//EN"
 "http://www.w3.org/Graphics/SVG/1.1/DTD/svg11.dtd">
<!-- Generated by graphviz version 2.40.1 (20161225.0304)
 -->
<!-- Title: dependencies Pages: 1 -->
<svg width="1177pt" height="211pt"
 viewBox="0.00 0.00 1177.00 211.00" xmlns="http://www.w3.org/2000/svg" xmlns:xlink="http://www.w3.org/1999/xlink">
<g id="graph0" class="graph" transform="scale(1 1) rotate(0) translate(4 207)">
<title>dependencies</title>
<polygon fill="#ffffff" stroke="transparent" points="-4,4 -4,-207 1173,-207 1173,4 -4,4"/>
<text text-anchor="start" x="563.5091" y="-42.4" font-family="sans-serif" font-weight="bold" font-size="14.00" fill="#000000">Legend</text>
<polygon fill="#ffffb3" stroke="transparent" points="350.5,-10 350.5,-30 370.5,-30 370.5,-10 350.5,-10"/>
<text text-anchor="start" x="374.129" y="-15.4" font-family="sans-serif" font-size="14.00" fill="#000000"> &#160;Declarations</text>
<polygon fill="#8dd3c7" stroke="transparent" points="463.5,-10 463.5,-30 483.5,-30 483.5,-10 463.5,-10"/>
<text text-anchor="start" x="487.2251" y="-15.4" font-family="sans-serif" font-size="14.00" fill="#000000"> &#160;Module</text>
<polygon fill="#80b1d3" stroke="transparent" points="549.5,-10 549.5,-30 569.5,-30 569.5,-10 549.5,-10"/>
<text text-anchor="start" x="573.2812" y="-15.4" font-family="sans-serif" font-size="14.00" fill="#000000"> &#160;Bootstrap</text>
<polygon fill="#fdb462" stroke="transparent" points="646.5,-10 646.5,-30 666.5,-30 666.5,-10 646.5,-10"/>
<text text-anchor="start" x="670.1732" y="-15.4" font-family="sans-serif" font-size="14.00" fill="#000000"> &#160;Providers</text>
<polygon fill="#fb8072" stroke="transparent" points="742.5,-10 742.5,-30 762.5,-30 762.5,-10 742.5,-10"/>
<text text-anchor="start" x="766.2258" y="-15.4" font-family="sans-serif" font-size="14.00" fill="#000000"> &#160;Exports</text>
<g id="clust1" class="cluster">
<title>cluster_ProductsModule</title>
<polygon fill="none" stroke="#000000" stroke-dasharray="1,5" points="8,-70 8,-195 1161,-195 1161,-70 8,-70"/>
</g>
<g id="clust2" class="cluster">
<title>cluster_ProductsModule_declarations</title>
<polygon fill="none" stroke="#000000" points="312,-78 312,-130 1153,-130 1153,-78 312,-78"/>
</g>
<g id="clust8" class="cluster">
<title>cluster_ProductsModule_imports</title>
<polygon fill="none" stroke="#000000" points="16,-78 16,-130 304,-130 304,-78 16,-78"/>
</g>
<!-- ProductDetailComponent -->
<g id="node1" class="node">
<title>ProductDetailComponent</title>
<polygon fill="#ffffb3" stroke="#000000" points="1144.5884,-122 985.4116,-122 985.4116,-86 1144.5884,-86 1144.5884,-122"/>
<text text-anchor="middle" x="1065" y="-99.8" font-family="Times,serif" font-size="14.00" fill="#000000">ProductDetailComponent</text>
</g>
<!-- ProductsModule -->
<g id="node6" class="node">
<title>ProductsModule</title>
<polygon fill="#8dd3c7" stroke="#000000" points="629.0438,-187 626.0438,-191 605.0438,-191 602.0438,-187 520.9562,-187 520.9562,-151 629.0438,-151 629.0438,-187"/>
<text text-anchor="middle" x="575" y="-164.8" font-family="Times,serif" font-size="14.00" fill="#000000">ProductsModule</text>
</g>
<!-- ProductDetailComponent&#45;&gt;ProductsModule -->
<g id="edge1" class="edge">
<title>ProductDetailComponent&#45;&gt;ProductsModule</title>
<path fill="none" stroke="#000000" d="M1065,-122.2921C1065,-144.2057 1065,-178 1065,-178 1065,-178 639.3108,-178 639.3108,-178"/>
<polygon fill="#000000" stroke="#000000" points="639.3108,-174.5001 629.3108,-178 639.3107,-181.5001 639.3108,-174.5001"/>
</g>
<!-- ProductListComponent -->
<g id="node2" class="node">
<title>ProductListComponent</title>
<polygon fill="#ffffb3" stroke="#000000" points="967.1596,-122 820.8404,-122 820.8404,-86 967.1596,-86 967.1596,-122"/>
<text text-anchor="middle" x="894" y="-99.8" font-family="Times,serif" font-size="14.00" fill="#000000">ProductListComponent</text>
</g>
<!-- ProductListComponent&#45;&gt;ProductsModule -->
<g id="edge2" class="edge">
<title>ProductListComponent&#45;&gt;ProductsModule</title>
<path fill="none" stroke="#000000" d="M894,-122.1061C894,-141.3391 894,-169 894,-169 894,-169 639.114,-169 639.114,-169"/>
<polygon fill="#000000" stroke="#000000" points="639.114,-165.5001 629.114,-169 639.114,-172.5001 639.114,-165.5001"/>
</g>
<!-- ResultsComponent -->
<g id="node3" class="node">
<title>ResultsComponent</title>
<polygon fill="#ffffb3" stroke="#000000" points="802.0548,-122 679.9452,-122 679.9452,-86 802.0548,-86 802.0548,-122"/>
<text text-anchor="middle" x="741" y="-99.8" font-family="Times,serif" font-size="14.00" fill="#000000">ResultsComponent</text>
</g>
<!-- ResultsComponent&#45;&gt;ProductsModule -->
<g id="edge3" class="edge">
<title>ResultsComponent&#45;&gt;ProductsModule</title>
<path fill="none" stroke="#000000" d="M741,-122.027C741,-138.3976 741,-160 741,-160 741,-160 639.3546,-160 639.3546,-160"/>
<polygon fill="#000000" stroke="#000000" points="639.3546,-156.5001 629.3546,-160 639.3546,-163.5001 639.3546,-156.5001"/>
</g>
<!-- TabAttachmentsComponent -->
<g id="node4" class="node">
<title>TabAttachmentsComponent</title>
<polygon fill="#ffffb3" stroke="#000000" points="661.8571,-122 488.1429,-122 488.1429,-86 661.8571,-86 661.8571,-122"/>
<text text-anchor="middle" x="575" y="-99.8" font-family="Times,serif" font-size="14.00" fill="#000000">TabAttachmentsComponent</text>
</g>
<!-- TabAttachmentsComponent&#45;&gt;ProductsModule -->
<g id="edge4" class="edge">
<title>TabAttachmentsComponent&#45;&gt;ProductsModule</title>
<path fill="none" stroke="#000000" d="M575,-122.1061C575,-122.1061 575,-140.991 575,-140.991"/>
<polygon fill="#000000" stroke="#000000" points="571.5001,-140.9909 575,-150.991 578.5001,-140.991 571.5001,-140.9909"/>
</g>
<!-- TabFeaturesComponent -->
<g id="node5" class="node">
<title>TabFeaturesComponent</title>
<polygon fill="#ffffb3" stroke="#000000" points="470.0226,-122 319.9774,-122 319.9774,-86 470.0226,-86 470.0226,-122"/>
<text text-anchor="middle" x="395" y="-99.8" font-family="Times,serif" font-size="14.00" fill="#000000">TabFeaturesComponent</text>
</g>
<!-- TabFeaturesComponent&#45;&gt;ProductsModule -->
<g id="edge5" class="edge">
<title>TabFeaturesComponent&#45;&gt;ProductsModule</title>
<path fill="none" stroke="#000000" d="M395,-122.027C395,-138.3976 395,-160 395,-160 395,-160 510.5056,-160 510.5056,-160"/>
<polygon fill="#000000" stroke="#000000" points="510.5056,-163.5001 520.5056,-160 510.5056,-156.5001 510.5056,-163.5001"/>
</g>
<!-- PricingModule -->
<g id="node7" class="node">
<title>PricingModule</title>
<polygon fill="#8dd3c7" stroke="#000000" points="295.9888,-122 292.9888,-126 271.9888,-126 268.9888,-122 196.0112,-122 196.0112,-86 295.9888,-86 295.9888,-122"/>
<text text-anchor="middle" x="246" y="-99.8" font-family="Times,serif" font-size="14.00" fill="#000000">PricingModule</text>
</g>
<!-- PricingModule&#45;&gt;ProductsModule -->
<g id="edge6" class="edge">
<title>PricingModule&#45;&gt;ProductsModule</title>
<path fill="none" stroke="#000000" d="M246,-122.1061C246,-141.3391 246,-169 246,-169 246,-169 510.6723,-169 510.6723,-169"/>
<polygon fill="#000000" stroke="#000000" points="510.6724,-172.5001 520.6723,-169 510.6723,-165.5001 510.6724,-172.5001"/>
</g>
<!-- ProductsRoutingModule -->
<g id="node8" class="node">
<title>ProductsRoutingModule</title>
<polygon fill="#8dd3c7" stroke="#000000" points="177.661,-122 174.661,-126 153.661,-126 150.661,-122 24.339,-122 24.339,-86 177.661,-86 177.661,-122"/>
<text text-anchor="middle" x="101" y="-99.8" font-family="Times,serif" font-size="14.00" fill="#000000">ProductsRoutingModule</text>
</g>
<!-- ProductsRoutingModule&#45;&gt;ProductsModule -->
<g id="edge7" class="edge">
<title>ProductsRoutingModule&#45;&gt;ProductsModule</title>
<path fill="none" stroke="#000000" d="M101,-122.2921C101,-144.2057 101,-178 101,-178 101,-178 510.6262,-178 510.6262,-178"/>
<polygon fill="#000000" stroke="#000000" points="510.6262,-181.5001 520.6262,-178 510.6261,-174.5001 510.6262,-181.5001"/>
</g>
</g>
</svg>
