<?xml version="1.0" encoding="UTF-8" standalone="no"?>
<!DOCTYPE svg PUBLIC "-//W3C//DTD SVG 1.1//EN"
 "http://www.w3.org/Graphics/SVG/1.1/DTD/svg11.dtd">
<!-- Generated by graphviz version 2.40.1 (20161225.0304)
 -->
<!-- Title: dependencies Pages: 1 -->
<svg width="764pt" height="211pt"
 viewBox="0.00 0.00 764.00 211.00" xmlns="http://www.w3.org/2000/svg" xmlns:xlink="http://www.w3.org/1999/xlink">
<g id="graph0" class="graph" transform="scale(1 1) rotate(0) translate(4 207)">
<title>dependencies</title>
<polygon fill="#ffffff" stroke="transparent" points="-4,4 -4,-207 760,-207 760,4 -4,4"/>
<text text-anchor="start" x="357.0091" y="-42.4" font-family="sans-serif" font-weight="bold" font-size="14.00" fill="#000000">Legend</text>
<polygon fill="#ffffb3" stroke="transparent" points="144,-10 144,-30 164,-30 164,-10 144,-10"/>
<text text-anchor="start" x="167.629" y="-15.4" font-family="sans-serif" font-size="14.00" fill="#000000"> &#160;Declarations</text>
<polygon fill="#8dd3c7" stroke="transparent" points="257,-10 257,-30 277,-30 277,-10 257,-10"/>
<text text-anchor="start" x="280.7251" y="-15.4" font-family="sans-serif" font-size="14.00" fill="#000000"> &#160;Module</text>
<polygon fill="#80b1d3" stroke="transparent" points="343,-10 343,-30 363,-30 363,-10 343,-10"/>
<text text-anchor="start" x="366.7812" y="-15.4" font-family="sans-serif" font-size="14.00" fill="#000000"> &#160;Bootstrap</text>
<polygon fill="#fdb462" stroke="transparent" points="440,-10 440,-30 460,-30 460,-10 440,-10"/>
<text text-anchor="start" x="463.6732" y="-15.4" font-family="sans-serif" font-size="14.00" fill="#000000"> &#160;Providers</text>
<polygon fill="#fb8072" stroke="transparent" points="536,-10 536,-30 556,-30 556,-10 536,-10"/>
<text text-anchor="start" x="559.7258" y="-15.4" font-family="sans-serif" font-size="14.00" fill="#000000"> &#160;Exports</text>
<g id="clust1" class="cluster">
<title>cluster_InstalledProductsModule</title>
<polygon fill="none" stroke="#000000" stroke-dasharray="1,5" points="8,-70 8,-195 748,-195 748,-70 8,-70"/>
</g>
<g id="clust2" class="cluster">
<title>cluster_InstalledProductsModule_declarations</title>
<polygon fill="none" stroke="#000000" points="140,-78 140,-130 740,-130 740,-78 140,-78"/>
</g>
<g id="clust6" class="cluster">
<title>cluster_InstalledProductsModule_imports</title>
<polygon fill="none" stroke="#000000" points="16,-78 16,-130 132,-130 132,-78 16,-78"/>
</g>
<!-- InstalledProductsLayoutComponent -->
<g id="node1" class="node">
<title>InstalledProductsLayoutComponent</title>
<polygon fill="#ffffb3" stroke="#000000" points="732.1895,-122 513.8105,-122 513.8105,-86 732.1895,-86 732.1895,-122"/>
<text text-anchor="middle" x="623" y="-99.8" font-family="Times,serif" font-size="14.00" fill="#000000">InstalledProductsLayoutComponent</text>
</g>
<!-- InstalledProductsModule -->
<g id="node4" class="node">
<title>InstalledProductsModule</title>
<polygon fill="#8dd3c7" stroke="#000000" points="397.2492,-187 394.2492,-191 373.2492,-191 370.2492,-187 240.7508,-187 240.7508,-151 397.2492,-151 397.2492,-187"/>
<text text-anchor="middle" x="319" y="-164.8" font-family="Times,serif" font-size="14.00" fill="#000000">InstalledProductsModule</text>
</g>
<!-- InstalledProductsLayoutComponent&#45;&gt;InstalledProductsModule -->
<g id="edge1" class="edge">
<title>InstalledProductsLayoutComponent&#45;&gt;InstalledProductsModule</title>
<path fill="none" stroke="#000000" d="M623,-122.1061C623,-141.3391 623,-169 623,-169 623,-169 407.2876,-169 407.2876,-169"/>
<polygon fill="#000000" stroke="#000000" points="407.2876,-165.5001 397.2876,-169 407.2875,-172.5001 407.2876,-165.5001"/>
</g>
<!-- PriceTypeFilterComponent -->
<g id="node2" class="node">
<title>PriceTypeFilterComponent</title>
<polygon fill="#ffffb3" stroke="#000000" points="495.6923,-122 326.3077,-122 326.3077,-86 495.6923,-86 495.6923,-122"/>
<text text-anchor="middle" x="411" y="-99.8" font-family="Times,serif" font-size="14.00" fill="#000000">PriceTypeFilterComponent</text>
</g>
<!-- PriceTypeFilterComponent&#45;&gt;InstalledProductsModule -->
<g id="edge2" class="edge">
<title>PriceTypeFilterComponent&#45;&gt;InstalledProductsModule</title>
<path fill="none" stroke="#000000" d="M361.8892,-122.1061C361.8892,-122.1061 361.8892,-140.991 361.8892,-140.991"/>
<polygon fill="#000000" stroke="#000000" points="358.3893,-140.9909 361.8892,-150.991 365.3893,-140.991 358.3893,-140.9909"/>
</g>
<!-- RenewalFilterComponent -->
<g id="node3" class="node">
<title>RenewalFilterComponent</title>
<polygon fill="#ffffb3" stroke="#000000" points="308.14,-122 147.86,-122 147.86,-86 308.14,-86 308.14,-122"/>
<text text-anchor="middle" x="228" y="-99.8" font-family="Times,serif" font-size="14.00" fill="#000000">RenewalFilterComponent</text>
</g>
<!-- RenewalFilterComponent&#45;&gt;InstalledProductsModule -->
<g id="edge3" class="edge">
<title>RenewalFilterComponent&#45;&gt;InstalledProductsModule</title>
<path fill="none" stroke="#000000" d="M274.4727,-122.1061C274.4727,-122.1061 274.4727,-140.991 274.4727,-140.991"/>
<polygon fill="#000000" stroke="#000000" points="270.9727,-140.9909 274.4727,-150.991 277.9727,-140.991 270.9727,-140.9909"/>
</g>
<!-- PricingModule -->
<g id="node5" class="node">
<title>PricingModule</title>
<polygon fill="#8dd3c7" stroke="#000000" points="123.9888,-122 120.9888,-126 99.9888,-126 96.9888,-122 24.0112,-122 24.0112,-86 123.9888,-86 123.9888,-122"/>
<text text-anchor="middle" x="74" y="-99.8" font-family="Times,serif" font-size="14.00" fill="#000000">PricingModule</text>
</g>
<!-- PricingModule&#45;&gt;InstalledProductsModule -->
<g id="edge4" class="edge">
<title>PricingModule&#45;&gt;InstalledProductsModule</title>
<path fill="none" stroke="#000000" d="M74,-122.1061C74,-141.3391 74,-169 74,-169 74,-169 230.4695,-169 230.4695,-169"/>
<polygon fill="#000000" stroke="#000000" points="230.4696,-172.5001 240.4695,-169 230.4695,-165.5001 230.4696,-172.5001"/>
</g>
</g>
</svg>
