<?xml version="1.0" encoding="UTF-8" standalone="no"?>
<!DOCTYPE svg PUBLIC "-//W3C//DTD SVG 1.1//EN"
 "http://www.w3.org/Graphics/SVG/1.1/DTD/svg11.dtd">
<!-- Generated by graphviz version 2.40.1 (20161225.0304)
 -->
<!-- Title: dependencies Pages: 1 -->
<svg width="1156pt" height="211pt"
 viewBox="0.00 0.00 1156.00 211.00" xmlns="http://www.w3.org/2000/svg" xmlns:xlink="http://www.w3.org/1999/xlink">
<g id="graph0" class="graph" transform="scale(1 1) rotate(0) translate(4 207)">
<title>dependencies</title>
<polygon fill="#ffffff" stroke="transparent" points="-4,4 -4,-207 1152,-207 1152,4 -4,4"/>
<text text-anchor="start" x="553.0091" y="-42.4" font-family="sans-serif" font-weight="bold" font-size="14.00" fill="#000000">Legend</text>
<polygon fill="#ffffb3" stroke="transparent" points="340,-10 340,-30 360,-30 360,-10 340,-10"/>
<text text-anchor="start" x="363.629" y="-15.4" font-family="sans-serif" font-size="14.00" fill="#000000"> &#160;Declarations</text>
<polygon fill="#8dd3c7" stroke="transparent" points="453,-10 453,-30 473,-30 473,-10 453,-10"/>
<text text-anchor="start" x="476.7251" y="-15.4" font-family="sans-serif" font-size="14.00" fill="#000000"> &#160;Module</text>
<polygon fill="#80b1d3" stroke="transparent" points="539,-10 539,-30 559,-30 559,-10 539,-10"/>
<text text-anchor="start" x="562.7812" y="-15.4" font-family="sans-serif" font-size="14.00" fill="#000000"> &#160;Bootstrap</text>
<polygon fill="#fdb462" stroke="transparent" points="636,-10 636,-30 656,-30 656,-10 636,-10"/>
<text text-anchor="start" x="659.6732" y="-15.4" font-family="sans-serif" font-size="14.00" fill="#000000"> &#160;Providers</text>
<polygon fill="#fb8072" stroke="transparent" points="732,-10 732,-30 752,-30 752,-10 732,-10"/>
<text text-anchor="start" x="755.7258" y="-15.4" font-family="sans-serif" font-size="14.00" fill="#000000"> &#160;Exports</text>
<g id="clust1" class="cluster">
<title>cluster_MyAccountModule</title>
<polygon fill="none" stroke="#000000" stroke-dasharray="1,5" points="8,-70 8,-195 1140,-195 1140,-70 8,-70"/>
</g>
<g id="clust2" class="cluster">
<title>cluster_MyAccountModule_declarations</title>
<polygon fill="none" stroke="#000000" points="140,-78 140,-130 1132,-130 1132,-78 140,-78"/>
</g>
<g id="clust9" class="cluster">
<title>cluster_MyAccountModule_imports</title>
<polygon fill="none" stroke="#000000" points="16,-78 16,-130 132,-130 132,-78 16,-78"/>
</g>
<!-- AddressBookComponent -->
<g id="node1" class="node">
<title>AddressBookComponent</title>
<polygon fill="#ffffb3" stroke="#000000" points="1123.5407,-122 966.4593,-122 966.4593,-86 1123.5407,-86 1123.5407,-122"/>
<text text-anchor="middle" x="1045" y="-99.8" font-family="Times,serif" font-size="14.00" fill="#000000">AddressBookComponent</text>
</g>
<!-- MyAccountModule -->
<g id="node7" class="node">
<title>MyAccountModule</title>
<polygon fill="#8dd3c7" stroke="#000000" points="576.4215,-187 573.4215,-191 552.4215,-191 549.4215,-187 449.5785,-187 449.5785,-151 576.4215,-151 576.4215,-187"/>
<text text-anchor="middle" x="513" y="-164.8" font-family="Times,serif" font-size="14.00" fill="#000000">MyAccountModule</text>
</g>
<!-- AddressBookComponent&#45;&gt;MyAccountModule -->
<g id="edge1" class="edge">
<title>AddressBookComponent&#45;&gt;MyAccountModule</title>
<path fill="none" stroke="#000000" d="M1045,-122.2921C1045,-144.2057 1045,-178 1045,-178 1045,-178 586.3796,-178 586.3796,-178"/>
<polygon fill="#000000" stroke="#000000" points="586.3797,-174.5001 576.3796,-178 586.3796,-181.5001 586.3797,-174.5001"/>
</g>
<!-- DashboardComponent -->
<g id="node2" class="node">
<title>DashboardComponent</title>
<polygon fill="#ffffb3" stroke="#000000" points="947.9734,-122 806.0266,-122 806.0266,-86 947.9734,-86 947.9734,-122"/>
<text text-anchor="middle" x="877" y="-99.8" font-family="Times,serif" font-size="14.00" fill="#000000">DashboardComponent</text>
</g>
<!-- DashboardComponent&#45;&gt;MyAccountModule -->
<g id="edge2" class="edge">
<title>DashboardComponent&#45;&gt;MyAccountModule</title>
<path fill="none" stroke="#000000" d="M877,-122.1061C877,-141.3391 877,-169 877,-169 877,-169 586.404,-169 586.404,-169"/>
<polygon fill="#000000" stroke="#000000" points="586.404,-165.5001 576.404,-169 586.4039,-172.5001 586.404,-165.5001"/>
</g>
<!-- MyAccountLayoutComponent -->
<g id="node3" class="node">
<title>MyAccountLayoutComponent</title>
<polygon fill="#ffffb3" stroke="#000000" points="787.8613,-122 600.1387,-122 600.1387,-86 787.8613,-86 787.8613,-122"/>
<text text-anchor="middle" x="694" y="-99.8" font-family="Times,serif" font-size="14.00" fill="#000000">MyAccountLayoutComponent</text>
</g>
<!-- MyAccountLayoutComponent&#45;&gt;MyAccountModule -->
<g id="edge3" class="edge">
<title>MyAccountLayoutComponent&#45;&gt;MyAccountModule</title>
<path fill="none" stroke="#000000" d="M694,-122.027C694,-138.3976 694,-160 694,-160 694,-160 586.305,-160 586.305,-160"/>
<polygon fill="#000000" stroke="#000000" points="586.3051,-156.5001 576.305,-160 586.305,-163.5001 586.3051,-156.5001"/>
</g>
<!-- QuoteListComponent -->
<g id="node4" class="node">
<title>QuoteListComponent</title>
<polygon fill="#ffffb3" stroke="#000000" points="581.823,-122 444.177,-122 444.177,-86 581.823,-86 581.823,-122"/>
<text text-anchor="middle" x="513" y="-99.8" font-family="Times,serif" font-size="14.00" fill="#000000">QuoteListComponent</text>
</g>
<!-- QuoteListComponent&#45;&gt;MyAccountModule -->
<g id="edge4" class="edge">
<title>QuoteListComponent&#45;&gt;MyAccountModule</title>
<path fill="none" stroke="#000000" d="M513,-122.1061C513,-122.1061 513,-140.991 513,-140.991"/>
<polygon fill="#000000" stroke="#000000" points="509.5001,-140.9909 513,-150.991 516.5001,-140.991 509.5001,-140.9909"/>
</g>
<!-- SettingsComponent -->
<g id="node5" class="node">
<title>SettingsComponent</title>
<polygon fill="#ffffb3" stroke="#000000" points="426.4468,-122 299.5532,-122 299.5532,-86 426.4468,-86 426.4468,-122"/>
<text text-anchor="middle" x="363" y="-99.8" font-family="Times,serif" font-size="14.00" fill="#000000">SettingsComponent</text>
</g>
<!-- SettingsComponent&#45;&gt;MyAccountModule -->
<g id="edge5" class="edge">
<title>SettingsComponent&#45;&gt;MyAccountModule</title>
<path fill="none" stroke="#000000" d="M363,-122.027C363,-138.3976 363,-160 363,-160 363,-160 439.3865,-160 439.3865,-160"/>
<polygon fill="#000000" stroke="#000000" points="439.3865,-163.5001 449.3865,-160 439.3865,-156.5001 439.3865,-163.5001"/>
</g>
<!-- WishlistsComponent -->
<g id="node6" class="node">
<title>WishlistsComponent</title>
<polygon fill="#ffffb3" stroke="#000000" points="281.9439,-122 148.0561,-122 148.0561,-86 281.9439,-86 281.9439,-122"/>
<text text-anchor="middle" x="215" y="-99.8" font-family="Times,serif" font-size="14.00" fill="#000000">WishlistsComponent</text>
</g>
<!-- WishlistsComponent&#45;&gt;MyAccountModule -->
<g id="edge6" class="edge">
<title>WishlistsComponent&#45;&gt;MyAccountModule</title>
<path fill="none" stroke="#000000" d="M215,-122.1061C215,-141.3391 215,-169 215,-169 215,-169 439.437,-169 439.437,-169"/>
<polygon fill="#000000" stroke="#000000" points="439.4371,-172.5001 449.437,-169 439.437,-165.5001 439.4371,-172.5001"/>
</g>
<!-- PricingModule -->
<g id="node8" class="node">
<title>PricingModule</title>
<polygon fill="#8dd3c7" stroke="#000000" points="123.9888,-122 120.9888,-126 99.9888,-126 96.9888,-122 24.0112,-122 24.0112,-86 123.9888,-86 123.9888,-122"/>
<text text-anchor="middle" x="74" y="-99.8" font-family="Times,serif" font-size="14.00" fill="#000000">PricingModule</text>
</g>
<!-- PricingModule&#45;&gt;MyAccountModule -->
<g id="edge7" class="edge">
<title>PricingModule&#45;&gt;MyAccountModule</title>
<path fill="none" stroke="#000000" d="M74,-122.2921C74,-144.2057 74,-178 74,-178 74,-178 439.6345,-178 439.6345,-178"/>
<polygon fill="#000000" stroke="#000000" points="439.6345,-181.5001 449.6345,-178 439.6344,-174.5001 439.6345,-181.5001"/>
</g>
</g>
</svg>
