<?xml version="1.0" encoding="UTF-8" standalone="no"?>
<!DOCTYPE svg PUBLIC "-//W3C//DTD SVG 1.1//EN"
 "http://www.w3.org/Graphics/SVG/1.1/DTD/svg11.dtd">
<!-- Generated by graphviz version 2.40.1 (20161225.0304)
 -->
<!-- Title: dependencies Pages: 1 -->
<svg width="878pt" height="211pt"
 viewBox="0.00 0.00 878.00 211.00" xmlns="http://www.w3.org/2000/svg" xmlns:xlink="http://www.w3.org/1999/xlink">
<g id="graph0" class="graph" transform="scale(1 1) rotate(0) translate(4 207)">
<title>dependencies</title>
<polygon fill="#ffffff" stroke="transparent" points="-4,4 -4,-207 874,-207 874,4 -4,4"/>
<text text-anchor="start" x="414.0091" y="-42.4" font-family="sans-serif" font-weight="bold" font-size="14.00" fill="#000000">Legend</text>
<polygon fill="#ffffb3" stroke="transparent" points="201,-10 201,-30 221,-30 221,-10 201,-10"/>
<text text-anchor="start" x="224.629" y="-15.4" font-family="sans-serif" font-size="14.00" fill="#000000"> &#160;Declarations</text>
<polygon fill="#8dd3c7" stroke="transparent" points="314,-10 314,-30 334,-30 334,-10 314,-10"/>
<text text-anchor="start" x="337.7251" y="-15.4" font-family="sans-serif" font-size="14.00" fill="#000000"> &#160;Module</text>
<polygon fill="#80b1d3" stroke="transparent" points="400,-10 400,-30 420,-30 420,-10 400,-10"/>
<text text-anchor="start" x="423.7812" y="-15.4" font-family="sans-serif" font-size="14.00" fill="#000000"> &#160;Bootstrap</text>
<polygon fill="#fdb462" stroke="transparent" points="497,-10 497,-30 517,-30 517,-10 497,-10"/>
<text text-anchor="start" x="520.6732" y="-15.4" font-family="sans-serif" font-size="14.00" fill="#000000"> &#160;Providers</text>
<polygon fill="#fb8072" stroke="transparent" points="593,-10 593,-30 613,-30 613,-10 593,-10"/>
<text text-anchor="start" x="616.7258" y="-15.4" font-family="sans-serif" font-size="14.00" fill="#000000"> &#160;Exports</text>
<g id="clust1" class="cluster">
<title>cluster_CartsModule</title>
<polygon fill="none" stroke="#000000" stroke-dasharray="1,5" points="8,-70 8,-195 862,-195 862,-70 8,-70"/>
</g>
<g id="clust2" class="cluster">
<title>cluster_CartsModule_declarations</title>
<polygon fill="none" stroke="#000000" points="398,-78 398,-130 854,-130 854,-78 398,-78"/>
</g>
<g id="clust6" class="cluster">
<title>cluster_CartsModule_imports</title>
<polygon fill="none" stroke="#000000" points="16,-78 16,-130 390,-130 390,-78 16,-78"/>
</g>
<!-- CartDetailComponent -->
<g id="node1" class="node">
<title>CartDetailComponent</title>
<polygon fill="#ffffb3" stroke="#000000" points="845.6429,-122 706.3571,-122 706.3571,-86 845.6429,-86 845.6429,-122"/>
<text text-anchor="middle" x="776" y="-99.8" font-family="Times,serif" font-size="14.00" fill="#000000">CartDetailComponent</text>
</g>
<!-- CartsModule -->
<g id="node4" class="node">
<title>CartsModule</title>
<polygon fill="#8dd3c7" stroke="#000000" points="450.5969,-187 447.5969,-191 426.5969,-191 423.5969,-187 361.4031,-187 361.4031,-151 450.5969,-151 450.5969,-187"/>
<text text-anchor="middle" x="406" y="-164.8" font-family="Times,serif" font-size="14.00" fill="#000000">CartsModule</text>
</g>
<!-- CartDetailComponent&#45;&gt;CartsModule -->
<g id="edge1" class="edge">
<title>CartDetailComponent&#45;&gt;CartsModule</title>
<path fill="none" stroke="#000000" d="M776,-122.2843C776,-143.3211 776,-175 776,-175 776,-175 460.6306,-175 460.6306,-175"/>
<polygon fill="#000000" stroke="#000000" points="460.6307,-171.5001 450.6306,-175 460.6306,-178.5001 460.6307,-171.5001"/>
</g>
<!-- CartListComponent -->
<g id="node2" class="node">
<title>CartListComponent</title>
<polygon fill="#ffffb3" stroke="#000000" points="688.7134,-122 561.2866,-122 561.2866,-86 688.7134,-86 688.7134,-122"/>
<text text-anchor="middle" x="625" y="-99.8" font-family="Times,serif" font-size="14.00" fill="#000000">CartListComponent</text>
</g>
<!-- CartListComponent&#45;&gt;CartsModule -->
<g id="edge2" class="edge">
<title>CartListComponent&#45;&gt;CartsModule</title>
<path fill="none" stroke="#000000" d="M625,-122.0225C625,-139.3734 625,-163 625,-163 625,-163 460.5819,-163 460.5819,-163"/>
<polygon fill="#000000" stroke="#000000" points="460.5819,-159.5001 450.5819,-163 460.5819,-166.5001 460.5819,-159.5001"/>
</g>
<!-- CartTableComponent -->
<g id="node3" class="node">
<title>CartTableComponent</title>
<polygon fill="#ffffb3" stroke="#000000" points="543.8075,-122 406.1925,-122 406.1925,-86 543.8075,-86 543.8075,-122"/>
<text text-anchor="middle" x="475" y="-99.8" font-family="Times,serif" font-size="14.00" fill="#000000">CartTableComponent</text>
</g>
<!-- CartTableComponent&#45;&gt;CartsModule -->
<g id="edge3" class="edge">
<title>CartTableComponent&#45;&gt;CartsModule</title>
<path fill="none" stroke="#000000" d="M428.4474,-122.1061C428.4474,-122.1061 428.4474,-140.991 428.4474,-140.991"/>
<polygon fill="#000000" stroke="#000000" points="424.9475,-140.9909 428.4474,-150.991 431.9475,-140.991 424.9475,-140.9909"/>
</g>
<!-- AlertModule -->
<g id="node5" class="node">
<title>AlertModule</title>
<polygon fill="#8dd3c7" stroke="#000000" points="382.3134,-122 379.3134,-126 358.3134,-126 355.3134,-122 293.6866,-122 293.6866,-86 382.3134,-86 382.3134,-122"/>
<text text-anchor="middle" x="338" y="-99.8" font-family="Times,serif" font-size="14.00" fill="#000000">AlertModule</text>
</g>
<!-- AlertModule&#45;&gt;CartsModule -->
<g id="edge4" class="edge">
<title>AlertModule&#45;&gt;CartsModule</title>
<path fill="none" stroke="#000000" d="M371.804,-122.1061C371.804,-122.1061 371.804,-140.991 371.804,-140.991"/>
<polygon fill="#000000" stroke="#000000" points="368.3041,-140.9909 371.804,-150.991 375.3041,-140.991 368.3041,-140.9909"/>
</g>
<!-- CartsRoutingModule -->
<g id="node6" class="node">
<title>CartsRoutingModule</title>
<polygon fill="#8dd3c7" stroke="#000000" points="276.2148,-122 273.2148,-126 252.2148,-126 249.2148,-122 141.7852,-122 141.7852,-86 276.2148,-86 276.2148,-122"/>
<text text-anchor="middle" x="209" y="-99.8" font-family="Times,serif" font-size="14.00" fill="#000000">CartsRoutingModule</text>
</g>
<!-- CartsRoutingModule&#45;&gt;CartsModule -->
<g id="edge5" class="edge">
<title>CartsRoutingModule&#45;&gt;CartsModule</title>
<path fill="none" stroke="#000000" d="M209,-122.0225C209,-139.3734 209,-163 209,-163 209,-163 351.2977,-163 351.2977,-163"/>
<polygon fill="#000000" stroke="#000000" points="351.2977,-166.5001 361.2977,-163 351.2976,-159.5001 351.2977,-166.5001"/>
</g>
<!-- PricingModule -->
<g id="node7" class="node">
<title>PricingModule</title>
<polygon fill="#8dd3c7" stroke="#000000" points="123.9888,-122 120.9888,-126 99.9888,-126 96.9888,-122 24.0112,-122 24.0112,-86 123.9888,-86 123.9888,-122"/>
<text text-anchor="middle" x="74" y="-99.8" font-family="Times,serif" font-size="14.00" fill="#000000">PricingModule</text>
</g>
<!-- PricingModule&#45;&gt;CartsModule -->
<g id="edge6" class="edge">
<title>PricingModule&#45;&gt;CartsModule</title>
<path fill="none" stroke="#000000" d="M74,-122.2843C74,-143.3211 74,-175 74,-175 74,-175 351.225,-175 351.225,-175"/>
<polygon fill="#000000" stroke="#000000" points="351.225,-178.5001 361.225,-175 351.225,-171.5001 351.225,-178.5001"/>
</g>
</g>
</svg>
