<?xml version="1.0" encoding="UTF-8" standalone="no"?>
<!DOCTYPE svg PUBLIC "-//W3C//DTD SVG 1.1//EN"
 "http://www.w3.org/Graphics/SVG/1.1/DTD/svg11.dtd">
<!-- Generated by graphviz version 2.40.1 (20161225.0304)
 -->
<!-- Title: dependencies Pages: 1 -->
<svg width="504pt" height="211pt"
 viewBox="0.00 0.00 504.00 211.00" xmlns="http://www.w3.org/2000/svg" xmlns:xlink="http://www.w3.org/1999/xlink">
<g id="graph0" class="graph" transform="scale(1 1) rotate(0) translate(4 207)">
<title>dependencies</title>
<polygon fill="#ffffff" stroke="transparent" points="-4,4 -4,-207 500,-207 500,4 -4,4"/>
<text text-anchor="start" x="227.0091" y="-42.4" font-family="sans-serif" font-weight="bold" font-size="14.00" fill="#000000">Legend</text>
<polygon fill="#ffffb3" stroke="transparent" points="14,-10 14,-30 34,-30 34,-10 14,-10"/>
<text text-anchor="start" x="37.629" y="-15.4" font-family="sans-serif" font-size="14.00" fill="#000000"> &#160;Declarations</text>
<polygon fill="#8dd3c7" stroke="transparent" points="127,-10 127,-30 147,-30 147,-10 127,-10"/>
<text text-anchor="start" x="150.7251" y="-15.4" font-family="sans-serif" font-size="14.00" fill="#000000"> &#160;Module</text>
<polygon fill="#80b1d3" stroke="transparent" points="213,-10 213,-30 233,-30 233,-10 213,-10"/>
<text text-anchor="start" x="236.7812" y="-15.4" font-family="sans-serif" font-size="14.00" fill="#000000"> &#160;Bootstrap</text>
<polygon fill="#fdb462" stroke="transparent" points="310,-10 310,-30 330,-30 330,-10 310,-10"/>
<text text-anchor="start" x="333.6732" y="-15.4" font-family="sans-serif" font-size="14.00" fill="#000000"> &#160;Providers</text>
<polygon fill="#fb8072" stroke="transparent" points="406,-10 406,-30 426,-30 426,-10 406,-10"/>
<text text-anchor="start" x="429.7258" y="-15.4" font-family="sans-serif" font-size="14.00" fill="#000000"> &#160;Exports</text>
<g id="clust1" class="cluster">
<title>cluster_AssetModule</title>
<polygon fill="none" stroke="#000000" stroke-dasharray="1,5" points="27.5,-70 27.5,-195 468.5,-195 468.5,-70 27.5,-70"/>
</g>
<g id="clust2" class="cluster">
<title>cluster_AssetModule_declarations</title>
<polygon fill="none" stroke="#000000" points="310.5,-78 310.5,-130 460.5,-130 460.5,-78 310.5,-78"/>
</g>
<g id="clust4" class="cluster">
<title>cluster_AssetModule_imports</title>
<polygon fill="none" stroke="#000000" points="35.5,-78 35.5,-130 302.5,-130 302.5,-78 35.5,-78"/>
</g>
<!-- AssetListComponent -->
<g id="node1" class="node">
<title>AssetListComponent</title>
<polygon fill="#ffffb3" stroke="#000000" points="452.712,-122 318.288,-122 318.288,-86 452.712,-86 452.712,-122"/>
<text text-anchor="middle" x="385.5" y="-99.8" font-family="Times,serif" font-size="14.00" fill="#000000">AssetListComponent</text>
</g>
<!-- AssetModule -->
<g id="node2" class="node">
<title>AssetModule</title>
<polygon fill="#8dd3c7" stroke="#000000" points="268.6515,-187 265.6515,-191 244.6515,-191 241.6515,-187 178.3485,-187 178.3485,-151 268.6515,-151 268.6515,-187"/>
<text text-anchor="middle" x="223.5" y="-164.8" font-family="Times,serif" font-size="14.00" fill="#000000">AssetModule</text>
</g>
<!-- AssetListComponent&#45;&gt;AssetModule -->
<g id="edge1" class="edge">
<title>AssetListComponent&#45;&gt;AssetModule</title>
<path fill="none" stroke="#000000" d="M385.5,-122.1061C385.5,-141.3391 385.5,-169 385.5,-169 385.5,-169 279.0571,-169 279.0571,-169"/>
<polygon fill="#000000" stroke="#000000" points="279.0572,-165.5001 269.0571,-169 279.0571,-172.5001 279.0572,-165.5001"/>
</g>
<!-- AssetsRoutingModule -->
<g id="node3" class="node">
<title>AssetsRoutingModule</title>
<polygon fill="#8dd3c7" stroke="#000000" points="294.2134,-122 291.2134,-126 270.2134,-126 267.2134,-122 152.7866,-122 152.7866,-86 294.2134,-86 294.2134,-122"/>
<text text-anchor="middle" x="223.5" y="-99.8" font-family="Times,serif" font-size="14.00" fill="#000000">AssetsRoutingModule</text>
</g>
<!-- AssetsRoutingModule&#45;&gt;AssetModule -->
<g id="edge2" class="edge">
<title>AssetsRoutingModule&#45;&gt;AssetModule</title>
<path fill="none" stroke="#000000" d="M223.5,-122.1061C223.5,-122.1061 223.5,-140.991 223.5,-140.991"/>
<polygon fill="#000000" stroke="#000000" points="220.0001,-140.9909 223.5,-150.991 227.0001,-140.991 220.0001,-140.9909"/>
</g>
<!-- TableModule -->
<g id="node4" class="node">
<title>TableModule</title>
<polygon fill="#8dd3c7" stroke="#000000" points="135.4232,-122 132.4232,-126 111.4232,-126 108.4232,-122 43.5768,-122 43.5768,-86 135.4232,-86 135.4232,-122"/>
<text text-anchor="middle" x="89.5" y="-99.8" font-family="Times,serif" font-size="14.00" fill="#000000">TableModule</text>
</g>
<!-- TableModule&#45;&gt;AssetModule -->
<g id="edge3" class="edge">
<title>TableModule&#45;&gt;AssetModule</title>
<path fill="none" stroke="#000000" d="M89.5,-122.1061C89.5,-141.3391 89.5,-169 89.5,-169 89.5,-169 168.1337,-169 168.1337,-169"/>
<polygon fill="#000000" stroke="#000000" points="168.1337,-172.5001 178.1337,-169 168.1337,-165.5001 168.1337,-172.5001"/>
</g>
</g>
</svg>
