<?xml version="1.0" encoding="UTF-8" standalone="no"?>
<!DOCTYPE svg PUBLIC "-//W3C//DTD SVG 1.1//EN"
 "http://www.w3.org/Graphics/SVG/1.1/DTD/svg11.dtd">
<!-- Generated by graphviz version 2.40.1 (20161225.0304)
 -->
<!-- Title: dependencies Pages: 1 -->
<svg width="662pt" height="211pt"
 viewBox="0.00 0.00 662.00 211.00" xmlns="http://www.w3.org/2000/svg" xmlns:xlink="http://www.w3.org/1999/xlink">
<g id="graph0" class="graph" transform="scale(1 1) rotate(0) translate(4 207)">
<title>dependencies</title>
<polygon fill="#ffffff" stroke="transparent" points="-4,4 -4,-207 658,-207 658,4 -4,4"/>
<text text-anchor="start" x="306.0091" y="-42.4" font-family="sans-serif" font-weight="bold" font-size="14.00" fill="#000000">Legend</text>
<polygon fill="#ffffb3" stroke="transparent" points="93,-10 93,-30 113,-30 113,-10 93,-10"/>
<text text-anchor="start" x="116.629" y="-15.4" font-family="sans-serif" font-size="14.00" fill="#000000"> &#160;Declarations</text>
<polygon fill="#8dd3c7" stroke="transparent" points="206,-10 206,-30 226,-30 226,-10 206,-10"/>
<text text-anchor="start" x="229.7251" y="-15.4" font-family="sans-serif" font-size="14.00" fill="#000000"> &#160;Module</text>
<polygon fill="#80b1d3" stroke="transparent" points="292,-10 292,-30 312,-30 312,-10 292,-10"/>
<text text-anchor="start" x="315.7812" y="-15.4" font-family="sans-serif" font-size="14.00" fill="#000000"> &#160;Bootstrap</text>
<polygon fill="#fdb462" stroke="transparent" points="389,-10 389,-30 409,-30 409,-10 389,-10"/>
<text text-anchor="start" x="412.6732" y="-15.4" font-family="sans-serif" font-size="14.00" fill="#000000"> &#160;Providers</text>
<polygon fill="#fb8072" stroke="transparent" points="485,-10 485,-30 505,-30 505,-10 485,-10"/>
<text text-anchor="start" x="508.7258" y="-15.4" font-family="sans-serif" font-size="14.00" fill="#000000"> &#160;Exports</text>
<g id="clust1" class="cluster">
<title>cluster_AssetsModule</title>
<polygon fill="none" stroke="#000000" stroke-dasharray="1,5" points="8,-70 8,-195 646,-195 646,-70 8,-70"/>
</g>
<g id="clust2" class="cluster">
<title>cluster_AssetsModule_declarations</title>
<polygon fill="none" stroke="#000000" points="300,-78 300,-130 638,-130 638,-78 300,-78"/>
</g>
<g id="clust5" class="cluster">
<title>cluster_AssetsModule_imports</title>
<polygon fill="none" stroke="#000000" points="16,-78 16,-130 292,-130 292,-78 16,-78"/>
</g>
<!-- AssetListComponent -->
<g id="node1" class="node">
<title>AssetListComponent</title>
<polygon fill="#ffffb3" stroke="#000000" points="630.212,-122 495.788,-122 495.788,-86 630.212,-86 630.212,-122"/>
<text text-anchor="middle" x="563" y="-99.8" font-family="Times,serif" font-size="14.00" fill="#000000">AssetListComponent</text>
</g>
<!-- AssetsModule -->
<g id="node3" class="node">
<title>AssetsModule</title>
<polygon fill="#8dd3c7" stroke="#000000" points="351.0954,-187 348.0954,-191 327.0954,-191 324.0954,-187 254.9046,-187 254.9046,-151 351.0954,-151 351.0954,-187"/>
<text text-anchor="middle" x="303" y="-164.8" font-family="Times,serif" font-size="14.00" fill="#000000">AssetsModule</text>
</g>
<!-- AssetListComponent&#45;&gt;AssetsModule -->
<g id="edge1" class="edge">
<title>AssetListComponent&#45;&gt;AssetsModule</title>
<path fill="none" stroke="#000000" d="M563,-122.1061C563,-141.3391 563,-169 563,-169 563,-169 361.2947,-169 361.2947,-169"/>
<polygon fill="#000000" stroke="#000000" points="361.2947,-165.5001 351.2947,-169 361.2946,-172.5001 361.2947,-165.5001"/>
</g>
<!-- PriceTypeFilterComponent -->
<g id="node2" class="node">
<title>PriceTypeFilterComponent</title>
<polygon fill="#ffffb3" stroke="#000000" points="477.6923,-122 308.3077,-122 308.3077,-86 477.6923,-86 477.6923,-122"/>
<text text-anchor="middle" x="393" y="-99.8" font-family="Times,serif" font-size="14.00" fill="#000000">PriceTypeFilterComponent</text>
</g>
<!-- PriceTypeFilterComponent&#45;&gt;AssetsModule -->
<g id="edge2" class="edge">
<title>PriceTypeFilterComponent&#45;&gt;AssetsModule</title>
<path fill="none" stroke="#000000" d="M329.7258,-122.1061C329.7258,-122.1061 329.7258,-140.991 329.7258,-140.991"/>
<polygon fill="#000000" stroke="#000000" points="326.2259,-140.9909 329.7258,-150.991 333.2259,-140.991 326.2259,-140.9909"/>
</g>
<!-- AssetsRoutingModule -->
<g id="node4" class="node">
<title>AssetsRoutingModule</title>
<polygon fill="#8dd3c7" stroke="#000000" points="283.7134,-122 280.7134,-126 259.7134,-126 256.7134,-122 142.2866,-122 142.2866,-86 283.7134,-86 283.7134,-122"/>
<text text-anchor="middle" x="213" y="-99.8" font-family="Times,serif" font-size="14.00" fill="#000000">AssetsRoutingModule</text>
</g>
<!-- AssetsRoutingModule&#45;&gt;AssetsModule -->
<g id="edge3" class="edge">
<title>AssetsRoutingModule&#45;&gt;AssetsModule</title>
<path fill="none" stroke="#000000" d="M269.2795,-122.1061C269.2795,-122.1061 269.2795,-140.991 269.2795,-140.991"/>
<polygon fill="#000000" stroke="#000000" points="265.7795,-140.9909 269.2795,-150.991 272.7795,-140.991 265.7795,-140.9909"/>
</g>
<!-- PricingModule -->
<g id="node5" class="node">
<title>PricingModule</title>
<polygon fill="#8dd3c7" stroke="#000000" points="123.9888,-122 120.9888,-126 99.9888,-126 96.9888,-122 24.0112,-122 24.0112,-86 123.9888,-86 123.9888,-122"/>
<text text-anchor="middle" x="74" y="-99.8" font-family="Times,serif" font-size="14.00" fill="#000000">PricingModule</text>
</g>
<!-- PricingModule&#45;&gt;AssetsModule -->
<g id="edge4" class="edge">
<title>PricingModule&#45;&gt;AssetsModule</title>
<path fill="none" stroke="#000000" d="M74,-122.1061C74,-141.3391 74,-169 74,-169 74,-169 244.7148,-169 244.7148,-169"/>
<polygon fill="#000000" stroke="#000000" points="244.7148,-172.5001 254.7148,-169 244.7148,-165.5001 244.7148,-172.5001"/>
</g>
</g>
</svg>
